<svg width="57" height="57" viewBox="0 0 57 57" fill="none" xmlns="http://www.w3.org/2000/svg">
<g clip-path="url(#clip0_183_1174)">
<path d="M32.0128 10.9852C33.2923 11.4345 34.4919 11.8899 35.716 12.2468C35.9929 12.3268 36.4419 12.1607 36.6818 11.9576C37.4938 11.2745 37.8445 10.3206 38.0598 9.30511C38.2259 8.49892 38.3427 7.67426 38.6319 6.91114C39.2532 5.28028 40.4773 4.25869 42.1567 3.80328C42.3781 3.74174 42.6427 3.86482 42.8949 3.90175C42.8518 4.14176 42.8764 4.43101 42.7534 4.61563C42.0644 5.62492 41.4431 6.68343 41.357 7.91427C41.2955 8.72047 41.4431 9.55128 41.5354 10.3636C41.7445 12.3084 41.4308 13.5453 40.2251 15.2193C40.625 15.5947 41.0617 15.9578 41.4493 16.3701C41.8799 16.8317 42.3043 17.3117 42.6673 17.8287C42.981 18.2779 43.387 18.4687 43.8483 18.2718C44.5558 17.964 45.2632 17.6133 45.8845 17.1578C46.352 16.8132 46.6657 16.2716 47.0594 15.8285C48.5666 14.1115 50.412 13.3853 52.6758 13.9577C52.8972 14.0131 53.0756 14.2469 53.2725 14.3946C53.1002 14.5916 52.9711 14.8746 52.7558 14.9731C50.9472 15.8285 49.6062 17.0471 48.9603 19.041C48.3943 20.8011 47.2255 22.1427 45.4108 22.8135C45.6261 23.8167 45.8599 24.7952 46.0506 25.786C46.3213 27.2261 46.7334 27.6384 48.2282 27.4907C49.1079 27.4046 49.9814 27.1215 50.8242 26.8322C53.0264 26.0876 55.0195 26.3337 56.7296 28.0015C56.8957 28.1615 56.9326 28.4508 57.0249 28.6785C56.7788 28.7646 56.5205 28.9431 56.2806 28.9185C54.349 28.7462 52.6081 29.0723 51.101 30.4324C49.6738 31.7186 47.9699 32.3464 45.9583 32.0202C45.823 32.5064 45.7123 32.9802 45.5646 33.448C45.3616 34.088 45.1402 34.7219 44.9003 35.3434C44.6173 36.0696 44.6542 36.3773 45.2386 36.9128C46.1429 37.7436 47.2624 38.0267 48.4374 38.1928C50.7996 38.5375 52.4912 39.7437 53.1864 42.113C53.254 42.3531 53.1494 42.6423 53.1248 42.9069C52.8542 42.8454 52.5343 42.8515 52.319 42.71C51.3471 42.07 50.3444 41.5099 49.1756 41.3745C48.6711 41.313 48.136 41.3068 47.6377 41.4053C45.5523 41.8176 43.59 41.6946 41.9291 40.3222C40.9141 41.1961 39.9114 42.0269 38.9579 42.9131C38.7733 43.0792 38.7057 43.467 38.7303 43.7439C38.8041 44.5993 39.2716 45.3009 39.8499 45.8979C40.262 46.3225 40.748 46.6733 41.197 47.0672C42.9195 48.5688 43.6453 50.415 43.0794 52.6798C43.024 52.9075 42.7595 53.0859 42.5934 53.289C42.415 53.1229 42.1628 52.9875 42.0644 52.7782C41.2093 50.9689 40.0036 49.6211 38.0044 48.9749C36.2451 48.4088 34.8979 47.2456 34.2212 45.3994C33.4215 45.5901 32.628 45.7809 31.8283 45.9594C31.4715 46.0394 31.1086 46.1256 30.7518 46.1256C30.112 46.1256 29.8106 46.4825 29.6629 47.0302C29.3677 48.1318 29.5891 49.178 29.9398 50.2366C30.2412 51.1535 30.5119 52.1136 30.5795 53.0675C30.6779 54.5445 30.0259 55.7876 28.974 56.8031C28.8263 56.9446 28.4819 57.0554 28.3465 56.9754C28.1927 56.8892 28.1251 56.5754 28.1066 56.3477C28.0389 55.3999 28.1066 54.4214 27.9159 53.4983C27.7744 52.8152 27.4176 52.1013 26.9624 51.572C25.5722 49.9412 24.6495 48.1872 25.0062 46.0271C23.7144 45.5778 22.4841 45.104 21.2231 44.7347C20.9585 44.6609 20.5218 44.8886 20.2757 45.104C19.5191 45.7809 19.1684 46.6917 18.9716 47.6703C18.8301 48.3841 18.7378 49.1165 18.5102 49.7996C17.9135 51.5597 16.6894 52.6982 14.8931 53.1844C14.6594 53.2459 14.3764 53.1167 14.118 53.0736C14.1734 52.8336 14.1673 52.5505 14.2903 52.3597C14.9547 51.3812 15.5267 50.3596 15.6621 49.1719C15.7236 48.6119 15.7236 48.0149 15.619 47.461C15.2253 45.4301 15.3976 43.5285 16.7201 41.9038C15.8405 40.8822 15.0039 39.8668 14.1057 38.9006C13.9397 38.7221 13.5337 38.6729 13.263 38.7098C12.0757 38.8883 11.2391 39.6391 10.4825 40.513C9.99653 41.0791 9.51671 41.6699 8.93847 42.1315C7.55438 43.2331 5.97343 43.51 4.27561 43.0177C4.07877 42.9623 3.80195 42.7408 3.7958 42.5808C3.78349 42.4146 4.0234 42.1869 4.2018 42.0638C5.05686 41.4545 5.98574 40.9437 6.76698 40.2606C7.2345 39.8545 7.57898 39.2267 7.78813 38.6298C8.48941 36.6297 9.54747 34.9742 11.6205 34.1926C11.3929 33.1526 11.153 32.1494 10.9685 31.134C10.7224 29.8047 10.3779 29.4416 9.01229 29.5093C8.20644 29.5524 7.37598 29.737 6.61934 30.0201C4.94613 30.654 3.30367 30.8632 1.67352 30.0016C1.15679 29.7308 0.69543 29.337 0.25252 28.9431C0.104884 28.8139 -0.0119954 28.4631 0.0618229 28.3215C0.141793 28.1677 0.473975 28.0507 0.676975 28.0754C1.7781 28.2046 2.87307 28.1677 3.91268 27.7861C4.49707 27.5707 5.08146 27.2692 5.54898 26.8691C7.14222 25.4968 8.88926 24.6352 11.0115 24.9675C11.4606 23.6874 11.9281 22.4566 12.2972 21.195C12.3772 20.9304 12.1557 20.4873 11.9404 20.2472C11.2514 19.4718 10.3226 19.1272 9.31986 18.9241C8.51401 18.7579 7.68971 18.641 6.92692 18.3456C5.29677 17.724 4.28177 16.487 3.83271 14.8131C3.77734 14.5977 3.90652 14.3269 3.94343 14.0808C4.18334 14.13 4.46631 14.1115 4.65701 14.2408C5.65356 14.9177 6.68701 15.5024 7.89886 15.6255C8.4771 15.687 9.09226 15.6624 9.66435 15.5578C11.6636 15.1824 13.5214 15.3793 15.1146 16.6778C16.1296 15.8039 17.1446 14.967 18.1104 14.0746C18.2888 13.9084 18.338 13.5146 18.3134 13.2376C18.2273 12.3822 17.7597 11.6868 17.1815 11.0898C16.7817 10.6775 16.3141 10.3329 15.8774 9.95746C14.1488 8.46199 13.4106 6.62189 13.9581 4.35715C14.0135 4.1233 14.2657 3.93252 14.4256 3.71712C14.6225 3.89559 14.8931 4.03098 14.9977 4.25253C15.8466 6.0434 17.04 7.38501 19.0208 8.01889C20.8048 8.59123 22.1581 9.76052 22.8286 11.5822C23.8436 11.3668 24.8278 11.1514 25.8182 10.936C25.8921 10.9175 25.9659 10.9052 26.0458 10.8929C27.147 10.739 27.4238 10.4375 27.5222 9.32358C27.6145 8.30198 27.3623 7.35424 26.9686 6.41881C26.378 5.0095 26.1873 3.5448 26.8148 2.11703C27.1162 1.42777 27.6145 0.824657 28.0759 0.215393C28.1927 0.0615386 28.5987 -0.0738534 28.6849 -3.21499e-06C28.8509 0.135389 28.9248 0.430789 28.9494 0.670802C29.0478 1.6924 29.0047 2.74476 29.2262 3.73558C29.3738 4.39408 29.786 5.04642 30.2289 5.57568C31.5576 7.15731 32.3881 8.87432 32.0559 10.9606L32.0128 10.9852ZM28.4695 14.3331C20.6448 14.3392 14.3149 20.6842 14.3149 28.5123C14.3149 36.3404 20.6571 42.6792 28.4819 42.6854C36.3312 42.6854 42.6857 36.322 42.6673 28.4754C42.6488 20.6473 36.3004 14.3269 28.4695 14.3331Z" fill="#375A29"/>
<path d="M41.7433 28.5246C41.7372 35.8788 35.7948 41.7807 28.4253 41.7622C21.1111 41.7438 15.2118 35.7927 15.2364 28.4569C15.2549 21.1334 21.1849 15.2377 28.5237 15.25C35.8502 15.2623 41.7495 21.1888 41.7433 28.5246Z" fill="#375A29"/>
</g>
<defs>
<clipPath id="clip0_183_1174">
<rect width="57" height="57" fill="white"/>
</clipPath>
</defs>
</svg>
