<svg width="47" height="51" viewBox="0 0 47 51" fill="none" xmlns="http://www.w3.org/2000/svg">
<g clip-path="url(#clip0_183_1177)">
<path d="M25.9638 13.5781C25.1702 15.1208 24.6896 16.7202 24.4661 18.2629C25.3714 18.7734 26.2432 19.1817 27.0033 19.7376C27.4951 20.1005 27.8639 20.6564 28.2328 21.1668C28.4116 21.4164 28.5681 21.4958 28.8587 21.4958C32.1224 21.4958 34.4808 22.9931 35.9338 25.9537C36.0791 26.26 36.2692 26.294 36.5486 26.294C39.5999 26.294 42.6513 26.294 45.7027 26.294C46.8204 26.294 47.0439 26.5323 46.9992 27.6893C46.7422 34.8356 43.9479 40.7569 38.6052 45.3964C35.0844 48.4477 30.9935 50.2287 26.3885 50.8185C15.0325 52.2705 4.20185 45.0787 0.971648 33.9509C0.356903 31.8296 0.0774741 29.663 -0.000766054 27.4624C-0.0231204 26.6117 0.267486 26.294 1.10577 26.294C4.00066 26.294 6.89555 26.294 9.79044 26.294C10.1705 26.294 10.3605 26.1806 10.5505 25.829C12.0818 23.0725 14.4066 21.7 17.5362 21.7453C17.7039 21.7453 17.9609 21.6546 18.0392 21.5298C19.0116 19.7262 20.5093 18.7053 22.5436 18.3537C22.32 16.6748 21.8171 15.0981 21.0458 13.6008C20.9676 13.6348 20.9117 13.6348 20.8782 13.6688C18.911 15.4838 16.6532 15.7674 14.2054 14.9506C11.7576 14.1339 9.94692 12.4551 8.438 10.4133C7.56618 9.23355 6.76142 8.0198 5.84489 6.88546C5.31957 6.23889 4.66011 5.6944 4.01184 5.17261C3.45298 4.71887 3.34121 4.18573 3.86654 3.70931C7.68913 0.181503 13.1436 -1.08896 17.9386 1.12301C21.6047 2.81318 23.6837 7.21442 22.5324 10.901C22.2418 11.8198 22.2642 12.5231 22.756 13.2831C22.9124 13.5327 23.0019 13.8276 23.1248 14.0999C23.2366 14.3721 23.3483 14.6444 23.4936 15.0187C23.7731 14.3608 23.9743 13.7709 24.276 13.2378C24.7008 12.4891 24.779 11.8539 24.4884 10.9577C23.3148 7.36189 25.3155 2.9493 28.8922 1.23644C32.4913 -0.487758 36.135 -0.351637 39.6894 1.39525C40.863 1.97376 41.936 2.80183 42.9978 3.59587C43.7467 4.1517 43.6573 4.74156 42.8637 5.2747C41.8577 5.9553 41.1312 6.89681 40.4159 7.861C39.4435 9.17683 38.5158 10.5267 37.4651 11.7745C35.9785 13.5327 34.112 14.7465 31.8542 15.2342C29.7417 15.6993 27.8416 15.2342 26.2209 13.7596C26.1538 13.7029 26.0867 13.6575 25.9862 13.5894L25.9638 13.5781ZM45.3338 27.9956C44.0261 27.9956 42.819 27.9956 41.6007 28.0069C41.4889 28.0069 41.3436 28.1544 41.2653 28.2791C40.6953 29.2433 40.1141 30.2189 39.5776 31.2057C39.3652 31.6028 39.1864 32.0452 39.097 32.4876C38.6499 34.9718 38.2252 37.456 38.1134 39.9969C38.0575 41.3468 37.3869 42.4698 36.135 43.0937C35.1291 43.5928 34.0784 43.3092 33.5084 42.413C33.3631 42.1748 33.2178 41.9253 33.1395 41.653C32.9831 41.0972 32.6366 40.7342 32.1671 40.462C31.2618 39.9288 30.3229 39.4524 29.4623 38.8626C28.6128 38.284 27.7857 37.6488 27.0703 36.9228C26.2991 36.1515 26.1091 35.1306 26.4556 34.0643C26.6009 33.6332 26.8021 33.2135 26.9809 32.7938C27.3274 31.9998 27.1821 31.7616 26.3326 31.7956C25.4497 31.841 24.5555 31.9431 23.6725 31.9431C22.7224 31.9431 21.7388 31.9884 20.8111 31.7956C18.911 31.4099 17.648 30.0828 16.6979 28.4493C16.4967 28.109 16.2955 27.9615 15.882 27.9615C12.2718 27.9842 8.66154 27.9615 5.06249 27.9615H4.5707C5.52076 28.8463 5.7443 29.9807 5.87843 31.149C5.95667 31.8183 6.01255 32.4876 6.11315 33.1455C6.21374 33.8261 6.41493 33.9849 7.08556 33.9849C7.43205 33.9849 7.77854 33.9509 8.12504 33.9282C9.34335 33.8828 10.517 34.0076 11.6347 34.5634C13.1101 35.3121 14.0713 37.4446 12.5624 39.1688C12.3612 39.3957 12.1823 39.6226 11.9923 39.8608C11.5341 40.4279 11.5229 40.5641 12.0706 41.0405C12.6965 41.5736 13.3671 42.0501 14.0042 42.5832C14.9766 43.3999 15.692 44.3981 15.692 45.7367C15.692 46.3719 15.5243 47.0185 15.4237 47.7331C22.6889 50.3988 29.6299 49.7522 36.0233 45.2035C41.8466 41.0632 44.8309 35.2327 45.3227 27.9615L45.3338 27.9956ZM34.2126 26.26C34.112 26.0785 34.0449 25.9311 33.9667 25.8063C32.603 23.8666 30.7365 23.0158 28.4116 23.22C27.5733 23.288 27.4392 23.2313 27.0592 22.4827C26.2544 20.8606 24.9355 19.9985 23.1583 20.0438C21.3365 20.0892 20.0511 21.0534 19.3357 22.7776C19.0451 23.4809 18.8439 23.617 18.1063 23.5263C15.9379 23.254 14.1272 23.946 12.6965 25.6248C12.54 25.8063 12.4171 26.0105 12.2382 26.2714H34.2014L34.2126 26.26Z" fill="#375A29"/>
<path d="M45.334 27.9956C44.8534 35.2667 41.8691 41.0973 36.0346 45.2376C29.6524 49.775 22.7002 50.4215 15.4351 47.7672C15.5357 47.0525 15.7033 46.406 15.7033 45.7707C15.7033 44.4322 14.988 43.434 14.0156 42.6173C13.3896 42.0841 12.7078 41.6077 12.0819 41.0746C11.5342 40.5981 11.5454 40.462 12.0037 39.8948C12.1937 39.668 12.3837 39.4298 12.5737 39.2029C14.0938 37.4787 13.1214 35.3461 11.646 34.5975C10.5395 34.0303 9.35468 33.9169 8.13637 33.9622C7.78988 33.9736 7.44339 34.0076 7.09689 34.019C6.42626 34.019 6.22508 33.8602 6.12448 33.1795C6.02389 32.5216 5.968 31.8524 5.88976 31.1831C5.75563 30.0147 5.53209 28.8804 4.58203 27.9956H5.07383C8.68405 27.9956 12.2943 27.9956 15.8933 27.9956C16.3069 27.9956 16.5081 28.1431 16.7093 28.4834C17.6705 30.1168 18.9223 31.4327 20.8225 31.8297C21.7502 32.0225 22.7226 31.9771 23.6838 31.9771C24.5668 31.9771 25.461 31.8637 26.344 31.8297C27.1934 31.7956 27.3387 32.0339 26.9923 32.8279C26.8134 33.2476 26.6011 33.656 26.4669 34.0984C26.1204 35.1646 26.3104 36.1742 27.0817 36.9569C27.8082 37.6829 28.6353 38.3181 29.4736 38.8966C30.3342 39.4865 31.2731 39.9743 32.1785 40.4961C32.6479 40.7683 32.9944 41.1313 33.1509 41.6871C33.2291 41.9594 33.3632 42.2089 33.5197 42.4471C34.0898 43.3432 35.1404 43.6268 36.1464 43.1277C37.3982 42.5038 38.0577 41.3808 38.1247 40.031C38.2365 37.49 38.6612 35.0058 39.1083 32.5216C39.1866 32.0792 39.3654 31.6368 39.5889 31.2398C40.1254 30.2529 40.7066 29.2774 41.2767 28.3132C41.3437 28.1998 41.5002 28.041 41.612 28.041C42.8303 28.0183 44.0374 28.0296 45.3452 28.0296L45.334 27.9956Z" fill="white"/>
</g>
<defs>
<clipPath id="clip0_183_1177">
<rect width="47" height="51" fill="white"/>
</clipPath>
</defs>
</svg>
