<svg width="60" height="50" viewBox="0 0 60 50" fill="none" xmlns="http://www.w3.org/2000/svg">
<g clip-path="url(#clip0_183_1180)">
<path d="M25.4767 49.9774C23.3219 49.9774 21.2792 50.0451 19.2366 49.9774C17.5531 49.9097 16.1838 48.4431 16.1614 46.7509C16.1389 41.4034 16.1389 36.0334 16.1614 30.6859C16.1614 29.1065 16.9694 27.843 18.1142 26.7825C20.9201 24.1652 23.7259 21.5253 26.5317 18.8854C27.699 17.7798 28.8662 16.6967 30.0783 15.546C31.2455 16.6291 32.3903 17.6895 33.5127 18.7726C36.3409 21.435 39.1692 24.12 42.02 26.7599C43.3892 28.0235 44.0402 29.5352 44.0402 31.3854C44.0402 36.3718 44.0402 41.3583 44.0402 46.3222C44.0402 48.556 42.6036 50 40.3813 50C38.5183 50 36.6552 50 34.7248 50C34.7248 49.7067 34.7248 49.4585 34.7248 49.2328C34.7248 46.2319 34.7248 43.231 34.7248 40.2301C34.7248 37.8384 33.1535 35.9657 30.8864 35.537C28.2152 35.0406 25.6114 37.0262 25.5216 39.7338C25.4318 42.87 25.4767 45.9838 25.4767 49.12C25.4767 49.3908 25.4767 49.639 25.4767 49.9549V49.9774Z" fill="#375A29"/>
<path d="M35.8914 18.5018C33.9385 16.6742 32.0305 14.8917 30.1001 13.0866C28.1697 14.8917 26.2617 16.6741 24.3313 18.4792C24.2415 18.3213 24.1517 18.231 24.1293 18.1408C23.0519 15.0045 21.099 12.4548 18.8992 10.0631C17.2382 8.28065 15.5547 6.52072 13.8936 4.73823C13.1304 3.92596 13.1753 3.02343 13.9609 2.30141C14.5446 1.78245 15.1955 1.75989 16.0036 2.30141C18.5625 3.92596 21.099 5.57307 23.6579 7.19762C24.6456 7.82939 25.6108 8.46115 26.5984 9.07036C28.9778 10.6047 31.3347 10.5595 33.6916 9.0478C37.1933 6.79148 40.695 4.53516 44.2191 2.30141C45.0945 1.73733 45.8352 1.80502 46.4413 2.50448C47.0474 3.20393 47.0249 4.01621 46.3291 4.73823C44.8476 6.31765 43.3661 7.87451 41.9071 9.43137C39.9318 11.5523 38.0462 13.7635 36.7892 16.426C36.475 17.0803 36.2281 17.7572 35.8914 18.5018Z" fill="#375A29"/>
<path d="M41.0771 23.3529C43.8156 19.6751 46.801 16.3583 50.37 13.6056C50.7741 13.2898 51.1781 12.9964 51.5822 12.7031C52.2556 12.2293 52.9963 12.297 53.4901 12.8159C54.0288 13.38 54.0513 14.0569 53.5575 14.7338C52.9065 15.6589 52.2331 16.5388 51.6495 17.4865C50.5272 19.3141 49.7864 21.2546 49.7415 23.4432C49.6966 25.9703 50.7741 28.0686 52.3004 29.9414C53.7146 31.6562 55.2859 33.213 56.7898 34.8376C57.5305 35.6273 57.4856 36.5524 56.6551 37.1616C56.0939 37.5903 55.5103 37.5 54.9267 37.1616C52.9963 36.1011 50.9536 35.3114 48.7763 34.9504C47.9907 34.815 47.2051 34.7473 46.4194 34.7248C45.948 34.7248 45.7685 34.5894 45.7685 34.093C45.7909 33.0551 45.7685 32.0172 45.7685 30.9793C45.7685 28.8583 44.9828 27.0759 43.4565 25.6318C42.6708 24.8647 41.8627 24.1201 41.0098 23.3304L41.0771 23.3529Z" fill="#375A29"/>
<path d="M14.3439 34.7473C11.9196 34.7248 9.71985 35.2211 7.58742 36.1011C6.75689 36.4396 5.97126 36.8683 5.16318 37.2518C4.33265 37.658 3.65925 37.5226 3.14297 36.8006C2.69404 36.1914 2.80627 35.4919 3.41233 34.8376C4.93871 33.1679 6.55487 31.5659 7.99146 29.8285C9.65251 27.7979 10.7075 25.4738 10.4157 22.7211C10.2361 21.0515 9.69741 19.4946 8.86688 18.0731C8.21593 16.9675 7.45274 15.9071 6.68955 14.8466C6.17328 14.102 6.17328 13.4026 6.712 12.8159C7.22827 12.2744 7.94657 12.2518 8.66486 12.7708C12.3012 15.343 15.354 18.5018 18.0925 21.9991C18.4292 22.4278 18.7434 22.8791 19.125 23.3529C18.4067 24.0298 17.7558 24.6841 17.0375 25.3159C15.1744 26.963 14.2765 29.0163 14.3439 31.4982C14.3663 32.5587 14.3439 33.5966 14.3439 34.7473Z" fill="#375A29"/>
<path d="M25.5215 4.51264C25.5215 2.00812 27.5192 0 29.9659 0C32.4351 0 34.4553 2.00812 34.4553 4.49007C34.4553 6.94946 32.4351 9.00271 29.9884 9.00271C27.5192 9.00271 25.5215 6.99458 25.5215 4.51264Z" fill="#375A29"/>
<path d="M4.46689 20.0812C6.93603 20.0812 8.95623 22.0667 8.95623 24.5487C8.95623 27.0081 6.93603 29.0613 4.48934 29.0613C2.0202 29.0613 0 27.0306 0 24.5713C0 22.0667 1.97531 20.0812 4.46689 20.0812Z" fill="#375A29"/>
<path d="M55.5557 28.8809C53.0866 28.8809 51.0664 26.8953 51.0664 24.4134C51.0664 21.9314 53.0417 19.9233 55.5108 19.9008C57.98 19.9008 60.0002 21.8863 60.0002 24.3683C60.0002 26.8728 58.0473 28.8583 55.5557 28.8809Z" fill="#375A29"/>
</g>
<defs>
<clipPath id="clip0_183_1180">
<rect width="60" height="50" fill="white"/>
</clipPath>
</defs>
</svg>
