<svg width="45" height="44" viewBox="0 0 45 44" fill="none" xmlns="http://www.w3.org/2000/svg">
<g clip-path="url(#clip0_183_1188)">
<path d="M6.91726 8.41698C5.94854 10.2129 6.56912 12.3893 8.29465 13.3481C9.76287 14.1548 11.1705 15.0375 12.3966 16.1942C13.8042 17.5183 14.9546 19.0403 15.9082 20.8514C15.1514 21.0645 14.44 21.2928 13.7134 21.445C10.6862 22.069 7.91625 21.582 5.55499 19.4817C3.70838 17.8379 2.57316 15.7072 1.78607 13.3938C0.484359 9.5889 0.0151362 5.66223 0 1.65946C0 0.715841 0.620585 0.000517088 1.51362 0.000517088C5.41877 -0.0299222 9.29364 0.259251 13.0172 1.56814C15.7265 2.51176 18.1029 3.95763 19.783 6.39277C21.3118 8.63006 21.887 11.1261 21.6297 13.7895C21.4783 15.2963 21.0696 16.7878 20.7972 18.2793C20.7518 18.5228 20.7669 18.812 20.8577 19.0251C22.1292 21.6429 22.9617 24.3976 23.4763 27.2589C23.5066 27.3807 23.5368 27.5176 23.5974 27.7307C23.8093 27.2437 23.9606 26.8175 24.1574 26.4066C24.672 25.2956 25.1867 24.1693 25.7316 23.0735C25.9132 22.7235 25.9586 22.4343 25.7619 22.069C24.9294 20.5318 24.5055 18.8729 24.445 17.1226C24.3088 12.922 26.0797 9.69543 29.4248 7.30595C32.0131 5.46437 34.9495 4.42943 38.0222 3.75977C39.5964 3.40972 41.2008 3.18142 42.8052 2.95313C43.8496 2.80093 44.5459 3.40972 44.667 4.44465C45.0757 8.02127 45.1362 11.5979 44.561 15.1593C44.1675 17.5488 43.4712 19.8317 42.0787 21.8407C40.3683 24.3063 38.0071 25.6304 35.0252 25.7522C34.4046 25.7826 33.7841 25.7826 33.1635 25.7065C32.3007 25.6 31.4379 25.4173 30.5146 25.2499C31.3925 23.591 32.3764 22.0994 33.5721 20.7753C34.6922 19.5273 35.9788 18.5228 37.4622 17.7314C39.2634 16.7573 39.9596 14.5809 39.0212 12.8459C38.4914 13.196 37.9617 13.5308 37.4622 13.9113C37.3713 13.9874 37.3411 14.1852 37.3411 14.3374C37.3713 15.0071 37.1292 15.555 36.5388 15.8594C33.1483 17.6097 30.8476 20.4253 29.001 23.6671C27.2603 26.711 26.0343 29.9832 25.0656 33.362C25.0656 33.4076 25.0656 33.4533 25.0505 33.5446C25.9132 33.6359 26.7608 33.7273 27.6236 33.849C30.7114 34.2904 33.7084 35.0514 36.4632 36.6038C37.8103 37.3648 38.9909 38.3084 39.8234 39.6325C40.3683 40.4848 40.6862 41.398 40.671 42.4177C40.671 43.3156 40.0202 43.9701 39.1271 44.0005C38.9909 44.0005 38.8698 44.0005 38.7336 44.0005C27.7901 44.0005 16.8466 44.0005 5.90313 44.0005C5.31282 44.0005 4.79818 43.8788 4.40464 43.4222C4.0111 42.9504 3.99596 42.4025 4.07164 41.8393C4.32896 40.013 5.3885 38.6889 6.78103 37.593C8.76387 36.0406 11.0797 35.1883 13.4712 34.5491C15.7719 33.9403 18.1181 33.6207 20.4944 33.5294C20.7518 33.5294 20.9637 33.5294 20.9485 33.1489C20.7669 28.5374 19.9193 24.078 17.7851 19.9535C15.9082 16.3312 13.1988 13.546 9.56609 11.6892C8.80928 11.2935 8.44601 10.7151 8.55197 9.84763C8.55197 9.74109 8.55197 9.5889 8.49142 9.54324C7.97679 9.16274 7.46216 8.81269 6.91726 8.4322V8.41698Z" fill="#375A29"/>
</g>
<defs>
<clipPath id="clip0_183_1188">
<rect width="45" height="44" fill="white"/>
</clipPath>
</defs>
</svg>
