<svg width="524" height="567" viewBox="0 0 524 567" fill="none" xmlns="http://www.w3.org/2000/svg">
<g clip-path="url(#clip0_183_989)">
<path d="M219.287 196.032C225.432 200.603 235.54 193.081 230.979 186.054C230.776 185.672 230.308 185.528 229.845 185.578C229.728 185.543 229.652 185.583 229.517 185.606C229.189 185.633 228.983 185.89 228.893 186.182C228.557 187.487 229.835 188.326 230.097 189.558C230.444 191.136 229.515 192.706 228.519 193.872C226.637 196.046 221.767 198.584 219.323 195.915C219.206 195.88 219.13 195.92 219.229 196.015L219.287 196.032Z" fill="#36281E" fill-opacity="0.1"/>
<path d="M229.969 185.807C232.095 189.721 236.531 189.226 239.383 186.39C242.199 183.67 243.141 177.05 238.329 175.639C237.861 175.496 237.39 175.991 237.709 176.409C238.767 177.757 240.063 178.537 240.379 180.426C240.633 182.103 239.821 183.709 238.806 184.933C236.516 187.814 232.579 188.974 230.139 185.668C230.099 185.591 229.906 185.596 229.987 185.749L229.969 185.807Z" fill="#36281E" fill-opacity="0.1"/>
<path d="M236.144 175.673C240.906 180.587 247.442 176.577 249.437 171.111C251.594 165.119 245.831 157.212 239.383 160.097C238.426 160.508 239.044 162.04 240.001 161.63C245.532 159.231 249.379 166.295 247.635 170.943C245.944 175.414 240.607 178.64 236.409 175.435C236.252 175.322 235.928 175.543 236.126 175.732L236.144 175.673Z" fill="#36281E" fill-opacity="0.1"/>
<path d="M240.2 160.348C245.142 156.745 248.071 150.734 243.323 145.568C240.641 142.635 234.267 139.018 231.638 143.842C231.436 144.292 232.061 144.547 232.344 144.25C235.393 140.771 240.085 143.616 242.775 146.104C247.441 150.285 245.102 157.5 240.101 160.254C240.101 160.254 240.106 160.447 240.2 160.348Z" fill="#36281E" fill-opacity="0.1"/>
<path d="M230.448 148.978C233.377 146.101 233.526 138.727 228.037 138.068C224.062 137.681 218.454 139.289 220.14 144.22C220.329 144.853 221.206 145.122 221.718 144.703C226.816 140.38 218.315 135.984 214.297 136.16C211.631 136.302 199.335 139.698 205.179 143.792C205.592 144.111 206.275 143.553 205.897 143.117C202.908 139.514 211.075 138.115 213.291 137.771C215.238 137.471 224.609 140.28 220.498 143.05C221.065 143.288 221.632 143.525 222.14 143.745C221.444 140.589 225.216 140.594 226.844 140.709C230.872 140.92 233.034 145.549 230.349 148.884C230.314 149.001 230.372 149.019 230.466 148.92L230.448 148.978Z" fill="#36281E" fill-opacity="0.1"/>
<path d="M219.274 194.62C218.25 196.29 218.122 198.17 216.23 199.125C214.491 200 212.243 199.823 210.377 199.443C208.394 199.027 206.433 197.914 205.29 196.22C203.728 194.014 205.096 191.427 206.6 189.649C207.013 189.136 206.244 188.516 205.831 189.029C201.457 193.702 203.926 199.001 209.601 200.932C212.039 201.743 214.884 201.848 217.194 200.572C219.198 199.459 220.912 196.786 219.467 194.616C219.467 194.616 219.35 194.58 219.292 194.562L219.274 194.62Z" fill="#36281E" fill-opacity="0.1"/>
<path d="M205.822 190.306C202.166 193.471 197.689 193.891 193.9 190.81C190.013 187.636 189.231 179.336 196.011 179.75C196.901 179.767 197.12 178.427 196.189 178.334C189.913 177.945 187.695 184.558 190.927 189.451C192.616 192.08 195.311 193.929 198.359 194.416C201.484 194.862 204.103 192.786 205.961 190.477C205.997 190.36 205.898 190.265 205.822 190.306Z" fill="#36281E" fill-opacity="0.1"/>
<path d="M194.959 178.596C193.296 182.564 187.596 178.834 186.039 176.822C183.72 173.744 186.282 168.516 190.162 169.001C190.841 169.082 190.952 168.092 190.273 168.012C185.521 167.451 183.18 173.003 185.265 176.841C186.175 178.463 188.451 179.8 190.241 180.221C192.323 180.731 193.666 180.311 194.982 178.731C195.018 178.614 194.919 178.52 194.865 178.695L194.959 178.596Z" fill="#36281E" fill-opacity="0.1"/>
<path d="M190.3 168.34C180.566 167.34 188.088 150.518 195.556 155.365C195.834 154.875 196.112 154.384 196.39 153.894C192.415 152.675 194.123 148.145 195.708 145.688C198.261 141.737 201.445 142.201 205.2 143.927C205.749 144.224 206.234 143.477 205.932 143C199.408 133.196 185.505 152.477 195.713 155.477C196.531 155.728 197.452 154.603 196.548 154.006C186.192 147.314 178.765 168.835 190.246 168.516C190.363 168.551 190.318 168.282 190.3 168.34Z" fill="#36281E" fill-opacity="0.1"/>
<path d="M224.661 183.925C227.847 187.717 232.212 187.455 234.325 182.857C236.177 178.691 232.188 172.094 227.499 172.577C227.095 172.644 226.735 172.982 226.686 173.351C226.65 173.468 226.615 173.585 226.579 173.702C226.489 173.994 226.692 174.376 226.948 174.583C232.567 178.16 237.157 173.617 238.45 167.936C240.2 160.348 231.768 157.188 226.427 161.053C225.838 161.512 225.902 162.555 226.644 162.847C231.308 164.532 232.955 157.488 232.255 154.139C231.288 149.364 222.605 147.023 220.776 152.156C220.614 152.682 221.051 153.136 221.55 152.969C223.545 152.301 225.473 151.229 227.735 151.986C232.182 153.541 230.249 162.352 227.411 160.971C227.484 161.569 227.556 162.167 227.629 162.765C233.883 159.052 237.907 164.699 235.472 170.35C234.777 171.992 233.474 173.32 231.906 174.055C232.114 175.462 232.305 176.928 232.513 178.335C233.122 185.111 230.575 186.953 224.813 183.844C224.696 183.808 224.602 183.907 224.643 183.984L224.661 183.925Z" fill="#36281E" fill-opacity="0.1"/>
<path d="M221.484 153.396C223.954 150.762 220.157 148.127 217.931 147.253C215.372 146.213 209.564 146.8 210.594 150.954C210.742 151.511 211.534 151.434 211.735 150.984C212.211 149.85 212.21 149.018 213.513 148.522C214.664 148.107 216.138 148.303 217.285 148.527C219.344 148.902 223.257 150.741 221.385 153.302C221.349 153.419 221.448 153.513 221.543 153.414L221.484 153.396Z" fill="#36281E" fill-opacity="0.1"/>
<path d="M223.398 183.666C222.348 185.839 221.235 187.801 219.479 189.566C215.336 190.983 211.658 190.047 208.445 186.76C207.046 186.523 205.72 186.052 204.429 185.465C201.321 184.128 191.987 164.507 199.518 165.6C199.486 165.078 199.512 164.574 199.557 164.012C192.369 165.136 196.264 148.673 202.918 154.295C203.688 154.915 204.766 153.902 204.185 153.084C203.718 148.975 205.672 148.23 210.166 150.887C211.111 151.56 212.256 150.12 211.311 149.447C207.397 146.776 198.439 148.252 202.797 154.066C203.232 153.688 203.61 153.292 204.063 152.855C194.885 145.244 189.445 167.374 199.805 165.496C200.691 165.319 200.757 164.06 199.844 163.908C192.821 163.035 193.225 179.664 204.257 176.008C204.833 175.801 204.715 174.933 204.112 174.812C198.33 174.064 198.006 182.217 201.96 184.964C206.072 187.824 213.807 190.13 213.844 182.913C213.898 182.737 213.7 182.549 213.525 182.495L212.882 182.298C212.882 182.298 212.437 182.289 212.248 182.488C208.817 186.17 211.919 190.447 215.912 191.607C220.297 192.951 222.695 186.585 223.785 183.656C223.82 183.539 223.663 183.427 223.609 183.603L223.398 183.666Z" fill="#36281E" fill-opacity="0.1"/>
<path d="M219.041 183.482C221.056 188.386 225.24 183.079 226.564 180.222C228.681 175.817 223.073 169.493 218.557 171.499C218.04 171.725 217.866 172.503 218.32 172.898C222.104 175.785 223.478 169.425 223.511 166.812C223.551 162.09 216.739 160.322 213.793 163.258C213.056 163.992 214.244 165.123 215.062 164.542C217.191 163.02 221.279 164.081 221.718 167.03C221.853 167.839 221.364 173.191 219.353 171.615C219.268 172.101 219.201 172.528 219.116 173.014C222.599 171.458 226.02 176.153 225.538 179.396C225.306 180.988 220.926 188.602 219.194 183.401C219.194 183.401 219.019 183.347 219.059 183.424L219.041 183.482Z" fill="#36281E" fill-opacity="0.1"/>
<path d="M215.481 165.054C217.672 162.079 217.986 156.674 213.92 154.916C213.178 154.624 212.229 154.59 211.519 154.82C211.097 154.946 210.733 155.09 210.369 155.235C209.587 155.699 209.789 155.249 209.006 154.881C206.699 153.854 204.79 154.868 203.448 156.952C203.187 157.384 203.741 157.873 204.059 157.459C205.465 155.587 207.536 154.878 209.211 156.927C209.431 157.25 209.859 157.317 210.182 157.097C214.657 154.182 218.148 161.777 215.306 165C215.27 165.117 215.387 165.153 215.423 165.036L215.481 165.054Z" fill="#36281E" fill-opacity="0.1"/>
<path d="M208.559 183.468C211.398 185.681 216.077 184.812 214.881 180.16C213.689 175.7 208.718 172.514 205.18 176.547C204.897 176.844 204.911 177.424 205.343 177.685C209.297 180.432 211.202 174.426 211.028 171.238C210.749 166.931 205.225 163.255 202.307 167.35C202.101 167.607 202.227 168.029 202.501 168.177C203.851 168.783 204.389 167.86 204.59 166.578C205.037 164.285 203.273 162.529 201.196 162.212C200.4 162.096 200.276 163.337 201.013 163.435C201.904 164.284 202.813 165.074 203.704 165.923C204.954 166.434 206.092 167.103 207.212 167.83C208.157 168.503 208.801 169.532 209.31 170.584C209.981 171.941 209.161 178.791 206.299 176.442C206.291 176.887 206.282 177.333 206.274 177.778C207.917 176.171 209.743 176.474 211.551 177.668C212.123 178.099 212.658 178.647 213.117 179.236C215.512 182.272 212.086 186.148 208.653 183.369C208.595 183.351 208.5 183.45 208.617 183.486L208.559 183.468Z" fill="#36281E" fill-opacity="0.1"/>
<path d="M220.801 228.866C226.64 228.8 230.061 219.933 231.347 215.529C233.309 208.71 233.649 201.969 230.342 195.646C229.734 194.5 227.856 195.204 228.464 196.35C231.104 201.509 231.252 206.032 230.498 211.623C229.837 216.282 227.296 227.914 220.737 228.655C220.621 228.619 220.666 228.888 220.742 228.848L220.801 228.866Z" fill="#36281E" fill-opacity="0.1"/>
<path d="M249.885 215.134C255.033 212.106 254.698 204.646 254.477 199.525C254.126 190.653 251.128 181.866 244.194 175.902C242.831 174.717 240.972 177.026 242.43 178.112C248.669 182.584 251.554 189.865 252.505 197.193C253.103 201.919 254.705 212.133 249.727 215.022C249.669 215.004 249.691 215.139 249.826 215.116L249.885 215.134Z" fill="#36281E" fill-opacity="0.1"/>
<path d="M206.351 139.546C204.796 131.265 200.767 125.424 193.094 121.665C184.755 117.574 173.498 121.545 165.021 122.913C164.346 123.026 164.487 124.029 165.161 123.916C171.211 122.955 177.211 121.531 183.333 121.169C194.594 120.526 204.061 128.865 206.275 139.587C206.257 139.645 206.45 139.641 206.391 139.623L206.351 139.546Z" fill="#36281E" fill-opacity="0.1"/>
<path d="M197.531 144.328C195.373 139.892 190.575 139.062 185.914 139.04C179.085 138.995 173.958 141.325 168.766 145.748C168.253 146.166 168.812 146.849 169.346 146.565C173.601 144.159 177.231 141.497 182.207 140.911C187.317 140.302 193.423 140.83 197.378 144.409C197.495 144.445 197.571 144.404 197.531 144.328Z" fill="#36281E" fill-opacity="0.1"/>
<path d="M191.996 227.074C197.27 228.435 201.531 223.088 204.54 219.532C209.429 213.801 212.193 208.123 210.693 200.499C210.539 199.748 209.343 199.893 209.497 200.644C210.884 207.594 208.507 212.431 204.421 217.832C201.516 221.676 197.666 227.98 192.068 226.84C191.951 226.804 191.897 226.98 192.014 227.016L191.996 227.074Z" fill="#36281E" fill-opacity="0.1"/>
<path d="M186.88 169.275C175.449 161.294 161.519 180.246 159.653 189.462C159.443 190.357 160.859 190.535 161.07 189.64C162.398 183.011 166.038 177.601 171.451 173.503C175.611 170.363 181.649 166.52 186.844 169.392C186.961 169.428 186.997 169.311 186.898 169.217L186.88 169.275Z" fill="#36281E" fill-opacity="0.1"/>
<path d="M195.403 145.85C189.165 134.278 164.569 160.07 168.339 163.208C169.248 163.999 170.411 162.5 169.484 161.768C168.202 160.735 177.75 151.699 178.698 150.902C182.202 147.817 191.437 140.22 195.192 145.913C195.232 145.99 195.425 145.985 195.344 145.832L195.403 145.85Z" fill="#36281E" fill-opacity="0.1"/>
<path d="M206.773 199.937C205.982 204.812 199.552 207.639 195.409 209.056C189.616 211.055 182.612 210.956 177.663 207.072C177.033 206.623 176.301 207.55 176.931 207.999C182.433 212.373 189.527 212.18 196.021 210.396C200.767 209.099 207.161 205.557 207.276 199.963C207.29 199.711 206.921 199.662 206.867 199.838L206.773 199.937Z" fill="#36281E" fill-opacity="0.1"/>
<path d="M230.591 193.163C235.655 203.351 245.112 215.27 236.348 226.338C235.71 227.166 236.934 228.181 237.63 227.37C241.33 222.811 242.667 216.568 241.097 210.841C239.143 203.653 234.913 199.094 230.803 193.1C230.704 193.006 230.569 193.028 230.65 193.181L230.591 193.163Z" fill="#36281E" fill-opacity="0.1"/>
<path d="M159.378 126.301C160.975 127.558 161.186 132.293 164.25 130.226C166.896 128.478 166.87 124.183 165.779 121.482C164.832 119.145 162.154 119.539 160.96 121.348C159.577 123.356 158.924 126.738 160.082 129.012C160.956 130.751 163.427 129.781 162.841 127.938C162.439 126.536 162.523 125.218 163.071 123.851C163.196 123.441 163.681 122.694 163.775 122.595C163.946 122.456 163.717 122.577 163.483 122.506C163.366 122.47 163.564 122.658 163.645 122.811C164.618 124.645 165.467 128.551 163.036 129.597C161.926 130.089 161.502 128.552 161.079 127.846C160.655 127.141 160.196 126.552 159.49 126.144C159.373 126.108 159.319 126.283 159.436 126.319L159.378 126.301Z" fill="#36281E" fill-opacity="0.1"/>
<path d="M169.219 148.445C169.002 146.651 170.043 144.923 169.902 143.089C169.801 141.33 169.004 139.551 166.918 139.679C164.504 139.835 162.474 142.284 162.414 144.568C162.322 147.163 163.835 149.737 165.581 151.552C166.216 152.194 167.128 152.346 167.748 151.576C168.462 150.708 170.218 148.943 168.877 147.892C167.536 146.842 166.235 149.002 165.597 149.83C166.254 149.775 166.928 149.662 167.526 149.589C166.239 148.363 165.172 146.629 164.896 144.817C164.796 143.891 165.146 143.166 165.828 142.608C165.999 142.468 167.005 141.689 167.262 141.896C167.577 142.12 167.578 142.952 167.623 143.222C167.718 143.955 167.889 144.647 168.002 145.321C168.201 146.342 168.306 147.461 168.774 148.437C168.914 148.607 169.143 148.486 169.138 148.292L169.219 148.445Z" fill="#36281E" fill-opacity="0.1"/>
<path d="M169.042 164.255C168.753 163.527 168.852 162.79 168.932 162.111C168.994 161.49 168.8 160.663 168.593 160.087C168.191 158.685 167.224 157.877 165.767 157.622C163.087 157.185 161.773 160.428 162.194 162.604C162.438 163.895 162.506 165.131 163.249 166.254C163.853 167.207 164.586 167.943 165.643 168.459C168.364 169.805 169.876 166.75 170.229 164.555C170.336 164.204 170.111 163.687 169.796 163.463C169.364 163.203 169.072 163.113 168.632 163.298C168.209 163.424 167.949 163.856 167.882 164.284C167.703 164.869 167.569 165.723 167.151 166.043C167.057 166.142 166.863 166.147 167.115 166.16C166.998 166.124 166.823 166.07 166.648 166.016C165.604 165.249 165.022 163.599 164.837 162.327C164.741 161.594 164.633 161.113 164.925 160.371C165.18 159.745 165.953 159.726 166.484 160.081C167.155 160.606 167.07 161.924 167.377 162.594C167.724 163.34 168.147 164.045 168.817 164.57C168.993 164.624 169.222 164.502 169.141 164.35L169.042 164.255Z" fill="#36281E" fill-opacity="0.1"/>
<path d="M160.513 190.621C161.257 188.61 159.529 186.737 157.883 185.849C156.902 185.292 155.59 185.402 154.655 185.947C153.609 186.65 153.331 187.972 153.67 189.163C154.247 191.452 156.223 193.145 158.426 193.884C159.303 194.153 160.409 194.3 161.087 193.548C161.877 192.639 161.516 191.313 161.048 190.337C160.8 189.686 159.82 189.961 159.875 190.617C159.925 191.081 159.934 191.467 159.867 191.895C159.795 192.128 159.778 192.187 159.76 192.245C159.93 192.106 159.778 192.187 159.719 192.169C159.427 192.079 159.211 191.949 158.954 191.743C158.424 191.388 157.929 190.917 157.51 190.404C157.33 190.157 157.091 189.892 156.911 189.645C156.632 189.304 156.551 189.151 156.488 188.94C156.425 188.729 156.299 188.306 156.317 188.247C156.388 188.014 156.258 188.23 156.352 188.131C156.047 188.293 156.546 188.126 156.276 188.171C156.393 188.207 156.546 188.126 156.681 188.103C156.681 188.103 157.319 188.107 157.512 188.102C158.888 188.204 160.359 189.039 160.473 190.545C160.437 190.662 160.63 190.657 160.648 190.599L160.513 190.621Z" fill="#36281E" fill-opacity="0.1"/>
<path d="M176.931 207.999C176.931 207.999 176.989 208.017 177.079 207.725C177.168 207.433 177.258 207.14 177.388 206.924C177.68 206.182 177.517 205.044 177.48 204.329C177.379 202.571 176.519 200.58 174.384 201.077C172.366 201.611 171.415 203.878 172.195 205.716C172.524 206.521 173.14 207.222 173.622 207.945C173.843 208.268 174.023 208.516 174.185 208.821C174.347 209.127 174.347 209.127 174.217 209.343C173.423 210.89 175.824 211.818 176.659 210.347C177.453 208.799 176.507 207.294 175.607 206.058C175.247 205.564 174.747 204.899 174.679 204.495C174.616 204.283 175.029 203.77 175.393 203.626C175.182 203.689 174.948 203.617 174.791 203.505C175.065 203.653 174.651 203.335 174.849 203.523C174.849 203.523 175.057 204.098 175.12 204.31C175.291 205.002 175.386 205.735 175.482 206.468C175.509 206.796 176.212 208.675 176.841 208.292C176.917 208.251 176.913 208.058 176.931 207.999Z" fill="#36281E" fill-opacity="0.1"/>
<path d="M251.235 215.739C250.604 213.626 248.257 213.355 246.64 214.459C244.394 215.945 245.143 218.926 247.127 220.173C249.583 221.758 253.966 222.27 255.397 219.062C255.949 217.887 255.606 216.503 254.904 215.456C253.94 214.009 252.326 213.642 250.685 213.779C249.642 213.843 249.298 215.593 250.368 215.857C251.069 216.072 252.086 216.511 252.423 216.871C252.72 217.154 252.72 217.154 252.788 217.558C252.685 217.271 252.798 217.945 252.77 217.617C252.739 217.927 252.734 217.734 252.681 217.909C252.627 218.085 252.627 218.085 252.38 218.265C252.209 218.404 251.94 218.45 251.67 218.495C250.591 218.676 249.516 218.219 248.635 217.757C248.342 217.667 248.122 217.344 248.063 217.326C248.063 217.326 247.861 216.944 247.964 217.231C247.82 216.867 247.964 217.231 247.901 217.02C247.874 216.692 247.829 217.254 247.919 216.962C247.968 216.593 247.901 217.02 247.973 216.786C248.009 216.669 248.045 216.552 248.098 216.377C248.17 216.143 247.986 216.534 248.21 216.219C248.341 216.003 248.723 215.801 248.857 215.778C249.051 215.773 249.033 215.832 249.208 215.885C249.325 215.921 249.487 216.227 249.627 216.398C250.131 217.256 251.272 216.454 251.02 215.609L251.235 215.739Z" fill="#36281E" fill-opacity="0.1"/>
<path d="M237.292 227.011C235.682 226.006 235.81 224.126 233.554 224.394C231.315 224.603 230.077 226.975 230.533 229.034C231.608 234.289 239.374 232.319 241.619 229.169C242.086 228.48 242.027 227.63 241.374 227.047C240.051 225.938 238.297 224.568 236.725 225.942C236.383 226.221 236.316 226.648 236.56 227.106C237.302 228.23 238.454 228.646 239.556 229.432C239.443 228.758 239.406 228.043 239.311 227.31C238.211 229.02 234.675 230.751 233.1 228.797C232.222 227.696 233.599 224.664 235.115 225.768C235.902 226.329 236.303 226.9 237.297 227.204C237.414 227.24 237.468 227.065 237.351 227.029L237.292 227.011Z" fill="#36281E" fill-opacity="0.1"/>
<path d="M222.495 229.385C221.204 228.798 221.189 227.386 220.909 226.212C220.611 225.097 219.766 224.518 218.659 224.371C217.612 224.242 216.659 224.846 216.314 225.764C215.956 226.933 216.411 228.16 216.997 229.171C218.109 231.175 219.613 234.195 222.432 233.972C225.848 233.675 225.799 229.246 222.889 228.098C222.363 227.937 221.675 228.302 221.806 228.918C222.001 229.745 222.266 230.339 222.613 231.085C222.965 232.024 221.058 230.736 220.801 230.529C219.987 229.64 219.392 228.242 218.959 227.15C218.855 226.862 218.792 226.651 218.747 226.381C218.747 226.381 218.653 226.48 218.594 226.462C218.823 226.341 219.075 226.354 219.273 226.542C219.687 226.861 219.975 227.589 220.16 228.03C220.647 228.947 221.322 229.665 222.369 229.794C222.603 229.866 222.711 229.515 222.477 229.444L222.495 229.385Z" fill="#36281E" fill-opacity="0.1"/>
<path d="M193.557 228.448C192.891 228.116 193.187 227.567 193.425 227C193.645 226.492 193.766 225.889 193.751 225.309C193.876 224.068 193.065 222.54 191.874 222.047C189.099 220.877 188.114 224.925 188.412 226.872C188.819 229.299 190.581 233.358 193.732 232.468C197.053 231.439 195.435 227.745 194.646 225.52C194.335 224.657 192.893 224.982 193.127 225.886C193.299 226.578 194.76 230.992 192.813 230.459C191.994 230.208 191.557 228.923 191.327 228.213C191.074 227.368 190.88 226.54 190.956 225.668C190.987 225.358 191.036 224.989 191.125 224.696C191.233 224.346 191.556 224.125 191.134 224.251C190.923 224.314 190.959 224.197 191.215 224.404C191.332 224.44 191.553 224.763 191.593 224.84C191.755 225.145 191.63 225.555 191.599 225.865C191.474 227.106 191.831 229.071 193.508 228.817C193.701 228.812 193.732 228.502 193.615 228.466L193.557 228.448Z" fill="#36281E" fill-opacity="0.1"/>
<path d="M290.511 220.292C299.72 226.761 311.856 224.723 321.26 219.288C327.096 215.895 332.099 211.671 336.482 206.553C341.731 200.486 343.427 193.073 345.312 185.462C348.258 173.763 356.114 161.904 343.562 153.196C339.293 150.224 334.543 147.361 329.282 146.58C324.508 145.884 319.565 148.656 315.436 150.653C314.384 151.162 315.025 152.83 316.134 152.338C325.535 148.374 331.519 148.673 340.331 153.933C353.893 162.055 346.469 173.342 343.352 185.181C341.404 192.581 339.882 199.215 335.002 205.332C331.679 209.496 327.565 212.905 323.189 215.914C313.162 222.756 301.952 223.862 290.583 220.058C290.466 220.022 290.354 220.18 290.529 220.234L290.511 220.292Z" fill="#36281E" fill-opacity="0.1"/>
<path d="M332.075 151.658C343.95 145.254 339.663 129.611 332.259 121.008C328.06 116.139 320.768 115.311 314.847 115.224C310.572 115.193 306.419 116.223 302.184 116.269C298.143 116.31 294.744 116.548 290.974 118.207C290.17 118.536 290.648 119.898 291.529 119.528C295.798 117.702 299.763 117.702 304.249 117.669C310.282 117.599 315.684 116.248 321.799 117.163C335.368 119.21 345.831 143.08 332.092 151.6C332.092 151.6 332.039 151.775 332.174 151.753L332.075 151.658Z" fill="#36281E" fill-opacity="0.1"/>
<path d="M292.478 118.731C282.824 121.018 273.472 124.613 268.298 133.775C264.811 139.935 262.575 146.606 258.44 152.376C255.971 155.841 251.181 162.498 246.316 161.262C245.556 161.03 245.202 162.392 245.904 162.607C252.393 164.596 258.066 156.1 261.285 151.649C265.478 145.897 267.395 138.808 271.332 132.849C274.505 128.128 279.528 125.51 284.435 122.855C287.185 121.395 290.156 121.09 292.581 119.019C292.734 118.938 292.648 118.591 292.437 118.655L292.478 118.731Z" fill="#36281E" fill-opacity="0.1"/>
<path d="M294.289 221.322C286.681 220.27 279.953 213.218 275.214 207.607C269.358 200.631 268.761 192.771 267.723 184.265C266.359 173.483 259.394 166.998 248.647 168.886C246.952 169.199 247.306 171.802 248.942 171.472C268.79 167.639 263.771 192.777 270.585 204.142C275.623 212.531 284.155 220.583 294.311 221.457C294.428 221.493 294.406 221.358 294.347 221.34L294.289 221.322Z" fill="#36281E" fill-opacity="0.1"/>
<path d="M226.78 139.666C229.189 134.519 231.419 130.788 236.879 128.623C240.824 127.018 245.365 126.81 249.563 126.881C253.956 126.948 258.422 129.276 262.608 130.432C267.555 131.82 273.656 132.154 276.532 127.15C276.792 126.718 276.163 126.269 275.763 126.531C266.73 133.678 259.223 125.62 249.589 125.546C244.172 125.485 239.353 126.183 234.478 128.527C230.12 130.646 228.515 135.464 226.622 139.554C226.604 139.612 226.703 139.706 226.739 139.589L226.78 139.666Z" fill="#36281E" fill-opacity="0.1"/>
<path d="M288.837 120.174C307.104 108.564 309.588 84.1847 296.341 67.5222C292.911 63.2724 288.435 60.5572 283.255 59.0975C277.765 57.6067 275.758 51.4261 270.958 48.0997C266.198 44.8498 260.707 42.5271 255.889 39.2592C252.704 37.1316 249.408 35.9934 245.745 37.3018C245.17 37.5093 245.44 38.2959 246.02 38.2817C252.83 37.5541 257.16 42.2075 262.517 45.3848C269.228 49.3609 275.227 51.0714 277.542 59.5855C277.587 59.8552 277.902 60.0797 278.212 60.1108C307.715 63.5874 309.024 104.803 288.738 120.08C288.72 120.139 288.685 120.256 288.837 120.174Z" fill="#36281E" fill-opacity="0.1"/>
<path d="M233.195 91.606C228.142 82.6366 225.007 72.208 225.684 61.8602C226.007 56.8414 227.868 52.23 230.611 48.0808C234.79 41.7489 240.731 40.3073 247.735 39.5749C248.737 39.4343 248.794 37.7884 247.769 37.7942C236.655 37.3308 227.956 45.4758 225.625 56.2123C222.954 68.8918 227.434 80.5645 233.083 91.7636C233.123 91.84 233.258 91.8173 233.235 91.6824L233.195 91.606Z" fill="#36281E" fill-opacity="0.1"/>
<path d="M231.775 46.5819C231.545 41.9056 228.422 38.3254 223.49 38.3493C215.484 38.3904 210.185 44.8271 202.522 46.2527C202.252 46.298 202.32 46.7026 202.59 46.6573C210.397 45.5957 228.914 31.5033 231.64 46.6046C231.604 46.7215 231.874 46.6762 231.833 46.5998L231.775 46.5819Z" fill="#36281E" fill-opacity="0.1"/>
<path d="M216.445 137.075C213.799 130.058 209.844 126.479 203.111 123.2C192.15 117.858 183.025 110.071 177.875 98.7051C173.852 89.9233 174.826 79.8585 177.645 70.8706C179.316 65.6254 181.766 60.5547 185.416 56.3639C189.705 51.3449 196.711 49.1421 202.71 46.8865C203.209 46.7195 202.92 45.9914 202.422 46.1584C192.153 49.4083 183.61 52.8676 178.887 63.0628C175.155 71.067 173.181 79.802 173.936 88.6057C174.737 98.511 180.477 106.284 186.859 113.421C195.567 123.191 211.28 124.296 216.292 137.156C216.274 137.214 216.468 137.209 216.445 137.075Z" fill="#36281E" fill-opacity="0.1"/>
<path d="M198.452 142.371C192.495 142.4 190.287 132.704 190.795 128.125C191.223 124.226 192.801 120.744 191.719 116.765C191.506 115.997 190.414 116.43 190.568 117.181C191.507 120.795 190.103 124.331 189.707 127.92C189.43 130.074 189.963 132.092 190.572 134.07C191.767 137.891 194.073 142.052 198.434 142.429C198.492 142.447 198.488 142.254 198.47 142.312L198.452 142.371Z" fill="#36281E" fill-opacity="0.1"/>
<path d="M192.92 153.534C189.316 150.894 185.978 148.847 181.384 149.231C176.867 149.573 172.873 152.38 169.459 155.172C169.289 155.311 169.491 155.693 169.68 155.495C176.629 150.14 185.294 147.742 192.808 153.691C192.866 153.709 192.96 153.61 192.843 153.574L192.92 153.534Z" fill="#36281E" fill-opacity="0.1"/>
<path d="M171.265 153.87C169.477 155.113 167.176 155.944 165.145 156.728C162.557 157.662 159.572 158.219 157.246 156.419C156.832 156.1 156.307 156.77 156.739 157.031C161.773 160.429 166.762 155.625 171.364 153.964C171.422 153.982 171.418 153.789 171.283 153.812L171.265 153.87Z" fill="#36281E" fill-opacity="0.1"/>
<path d="M111.71 149.755C96.5986 147.938 97.5041 123.075 103.235 113.764C104.501 111.721 105.443 109.899 105.481 107.48C105.588 101.499 97.3795 93.2256 107.216 88.8835C107.521 88.7212 107.413 88.2402 107.067 88.3261C102.334 89.3705 101.214 92.6095 101.596 97.2047C101.865 101.126 104.345 104.509 104.269 108.515C104.205 112.27 99.9838 116.862 98.8367 120.605C95.6371 130.627 99.5348 148.582 111.773 149.966C111.89 150.002 111.827 149.791 111.809 149.849L111.71 149.755Z" fill="#36281E" fill-opacity="0.1"/>
<path d="M106.216 89.2173C114.779 83.3972 123.986 88.2022 132.262 92.0819C132.379 92.1178 132.491 91.9603 132.315 91.9065C127.466 88.949 122.635 85.933 116.961 84.8336C114.609 84.3687 112.254 84.5424 110.092 85.5433C109.728 85.6876 106.059 89.105 106.117 89.1229C106 89.0871 106.046 89.3569 106.14 89.2578L106.216 89.2173Z" fill="#36281E" fill-opacity="0.1"/>
<path d="M175.804 72.2893C171.863 60.5261 158.442 54.2378 146.439 58.5555C140.036 60.879 133.633 64.8663 129.116 70.007C125.897 73.6262 125.146 78.578 120.19 80.7694C118.047 81.7117 117.122 82.6437 116.108 84.6999C115.888 85.2083 116.599 85.81 117.034 85.4318C119.231 83.482 123.451 82.0245 124.994 79.491C128.567 73.677 130.266 68.76 136.38 64.8765C150.725 55.8389 166.295 57.412 175.669 72.312C175.71 72.3884 175.845 72.3657 175.822 72.2309L175.804 72.2893Z" fill="#36281E" fill-opacity="0.1"/>
<path d="M271.278 204.802C266.473 200.45 264.146 197.818 257.323 198.797C247.955 200.148 237.423 200.503 231.974 191.156C231.69 190.621 230.809 190.991 230.882 191.589C231.746 196.908 237.498 199.63 242.265 200.771C246.078 201.684 249.589 202.121 253.464 201.581C255.469 201.3 257.41 200.807 259.415 200.526C264.08 199.909 267.365 202.963 270.977 205.157C271.193 205.287 271.4 205.031 271.202 204.842L271.278 204.802Z" fill="#36281E" fill-opacity="0.1"/>
<path d="M189.981 222.171C194.37 214.112 204.795 214.109 211.97 210.102C217.047 207.308 219.299 202.881 220.13 197.25C220.215 196.764 219.361 196.63 219.334 197.134C218.618 213.867 196.604 209.743 189.864 222.135C189.847 222.194 189.946 222.288 189.981 222.171Z" fill="#36281E" fill-opacity="0.1"/>
<path d="M221.133 299.977C223.057 304.341 228.386 310.324 233.341 311.267C235.926 311.803 238.138 311.266 240.677 310.7C244.506 309.891 247.57 311.789 251.426 310.476C255.416 309.14 260.812 301.134 261.253 296.983C262.001 290.368 260.903 284.977 255.765 280.46C255.706 280.442 255.63 280.482 255.729 280.577C267.89 289.933 259.213 311.775 243.993 309.478C241.372 309.058 238.904 309.389 236.243 309.725C231.865 310.239 224.009 302.905 221.362 299.855C221.246 299.819 221.129 299.783 221.21 299.936L221.133 299.977Z" fill="#36281E" fill-opacity="0.1"/>
<path d="M261.489 294.752C278.955 287.631 293.208 276.39 300.414 258.511C305.464 245.793 304.696 224.511 289.559 219.232C288.916 219.035 288.606 219.836 289.155 220.132C298.074 225.04 301.048 231.197 302.006 241.215C302.643 248.319 300.838 255.251 297.977 261.666C291.006 277.314 276.613 287.553 261.466 294.617C261.408 294.599 261.412 294.793 261.489 294.752Z" fill="#36281E" fill-opacity="0.1"/>
<path d="M220.733 299.406C211.883 305.33 205.671 302.019 198.611 295.633C196.001 293.298 192.827 292.389 189.553 291.385C183.415 289.504 180.699 284.385 178.36 278.871C175.282 271.594 171.922 264.615 172.691 256.47C173.5 247.57 178.988 237.801 184.848 231.409C185.509 230.716 184.208 229.741 183.764 230.565C178.571 238.953 171.869 248.094 170.895 258.159C170.13 266.497 174.806 276.694 178.787 283.736C180.625 286.922 182.975 290.521 186.568 291.942C190.571 293.488 194.11 294.253 197.578 296.916C199.805 298.622 201.538 300.688 203.878 302.237C209.834 306.173 216.094 304.317 221.174 300.053C221.533 299.715 221.151 299.086 220.674 299.388L220.733 299.406Z" fill="#36281E" fill-opacity="0.1"/>
<path d="M183.729 232.345C184.339 231.189 185.278 230.005 186.203 229.073C187.11 228.2 188.306 228.054 189.236 227.316C189.748 226.897 189.383 226.209 188.803 226.224C185.728 226.241 184.837 230.19 183.572 232.233C183.536 232.35 183.653 232.386 183.689 232.269L183.729 232.345Z" fill="#36281E" fill-opacity="0.1"/>
<path d="M193.239 225.728C199.266 219.835 208.405 219.437 215.396 214.991C221.263 211.287 222.569 204.523 222.684 198.097C222.709 196.761 220.853 196.768 220.886 198.121C220.973 208.895 215.481 214.505 205.499 217.651C200.124 219.33 196.174 220.743 192.924 225.504C192.794 225.72 193.051 225.927 193.239 225.728Z" fill="#36281E" fill-opacity="0.1"/>
<path d="M182.552 233.264C186.702 228.907 186.702 224.109 185.81 218.462C184.255 209.349 184.468 198.219 193.049 192.341C193.601 191.998 192.962 191.163 192.468 191.523C186.735 195.204 184.422 201.915 183.283 208.347C181.852 216.353 187.985 225.973 182.453 233.17C182.436 233.229 182.476 233.305 182.57 233.206L182.552 233.264Z" fill="#36281E" fill-opacity="0.1"/>
<path d="M174.843 246.318C167.217 254.089 157.217 260.428 146.457 262.568C132.636 265.305 122.054 257.264 111.972 249.056C102.402 241.261 90.5155 232.052 91.0546 218.4C91.7098 203.951 111.67 203.927 121.995 202.997C122.265 202.952 122.179 202.606 121.927 202.593C110.747 202.557 95.8712 202.475 90.1556 214.03C84.1618 226.075 96.0391 239.695 104.731 246.389C116.24 255.162 127.682 265.194 142.943 264.433C155.849 263.847 166.5 255.596 174.807 246.435C174.825 246.377 174.784 246.3 174.69 246.4L174.843 246.318Z" fill="#36281E" fill-opacity="0.1"/>
<path d="M89.0719 219.648C87.5461 213.359 85.0405 207.345 85.4024 200.739C85.9044 190.337 95.9028 186.301 104.298 183.948C104.568 183.903 104.477 183.363 104.208 183.408C97.2619 183.327 88.8778 187.73 85.9039 194.303C81.7011 203.635 85.5926 210.969 88.8607 219.711C88.8427 219.769 89.036 219.765 88.9955 219.688L89.0719 219.648Z" fill="#36281E" fill-opacity="0.1"/>
<path d="M86.7665 193.16C90.3889 187.809 87.9264 184.368 86.6259 178.596C83.7675 166.013 94.6582 159.691 105.521 160.973C106.2 161.053 106.293 160.122 105.69 160.001C98.2396 158.229 91.7578 158.93 87.5751 165.9C85.7171 169.041 84.62 173.247 84.4753 176.849C84.2341 182.852 89.1558 186.408 86.609 193.048C86.5732 193.165 86.7306 193.277 86.7844 193.102L86.7665 193.16Z" fill="#36281E" fill-opacity="0.1"/>
<path d="M98.5841 161.278C96.0959 159.172 99.3061 155.166 101.166 153.689C102.172 152.909 103.079 152.036 104.045 151.18C105.293 150.028 106.588 149.977 108.148 149.687C108.552 149.619 108.655 149.075 108.246 148.95C104.841 147.33 101.046 151.157 98.8368 153.359C96.8517 155.245 95.382 160.04 98.5124 161.512C98.6293 161.547 98.7236 161.448 98.6246 161.354L98.5841 161.278Z" fill="#36281E" fill-opacity="0.1"/>
<path d="M185.342 172.834C183.174 175.944 178.188 175.311 175.143 174.186C171.865 172.989 170.067 169.048 168.433 166.244C168.131 165.767 167.524 166.285 167.768 166.744C169.704 170.024 171.718 174.096 175.783 175.022C179.186 175.809 182.994 175.696 185.5 172.946C185.518 172.887 185.419 172.793 185.383 172.91L185.342 172.834Z" fill="#36281E" fill-opacity="0.1"/>
<path d="M163.179 163.354C159.018 160.863 157.615 155.635 153.521 152.717C150.669 150.756 147.274 150.355 143.93 150.418C138.207 150.519 134.283 155.394 128.737 156.381C122.786 157.435 113.578 151.799 109.11 147.806C108.714 147.429 108.008 147.853 108.117 148.334C109.056 152.78 114.159 153.448 117.457 156.25C121.012 159.259 126.811 159.117 131.085 158.316C132.568 158.067 134.109 157.004 135.408 156.314C140.656 153.38 144.749 151.5 150.721 153.715C155.835 155.602 157.724 161.746 163.026 163.435C163.143 163.471 163.237 163.372 163.08 163.26L163.179 163.354Z" fill="#36281E" fill-opacity="0.1"/>
<path d="M87.5478 222.955C87.5478 222.955 87.7543 222.698 87.8486 222.599C87.8665 222.541 87.7675 222.446 87.7317 222.563C87.6374 222.662 87.5252 222.82 87.4309 222.919C87.4129 222.977 87.5119 223.072 87.5478 222.955Z" fill="#36281E" fill-opacity="0.1"/>
<path d="M57.5784 415.473C57.5784 415.473 57.4077 415.612 57.5246 415.648C57.6415 415.684 57.6953 415.509 57.5784 415.473Z" fill="#36281E" fill-opacity="0.1"/>
<path d="M283.41 326.931C275.839 317.83 269.414 307.288 263.766 296.921C263.36 296.157 262.658 295.11 262.253 294.346C262.518 294.108 263.215 294.129 263.596 293.927C263.984 294.749 264.389 295.513 264.777 296.336C270.191 306.631 276.81 317.168 284.223 326.157C284.682 326.746 283.91 327.596 283.451 327.008L283.41 326.931Z" fill="#36281E" fill-opacity="0.1"/>
<path d="M281.828 328.75C274.456 319.837 268.035 309.489 262.526 299.292C262.121 298.529 261.792 297.724 261.387 296.96C261.548 296.434 261.024 293.97 261.429 294.734C266.975 306.477 274.611 318.286 282.641 327.976C283.1 328.564 282.328 329.415 281.81 328.808L281.828 328.75Z" fill="#36281E" fill-opacity="0.1"/>
<path d="M198.045 295.395C196.093 298.635 194.158 301.816 192.125 304.903C190.612 307.127 189.059 309.273 187.447 311.402C187.321 310.98 187.136 310.539 186.916 310.216C190.781 305.323 194.175 300.094 197.352 294.734C197.591 294.999 197.847 295.206 198.027 295.453L198.045 295.395Z" fill="#36281E" fill-opacity="0.1"/>
<path d="M196.069 294.534C194.225 297.423 192.398 300.253 190.472 302.99C189.031 304.979 187.55 306.892 186.027 308.728C185.883 308.364 185.681 307.982 185.478 307.6C189.164 303.293 192.378 298.648 195.377 293.873C195.633 294.08 195.871 294.345 196.069 294.534Z" fill="#36281E" fill-opacity="0.1"/>
<path d="M324.27 389.545C333.142 414.014 348.876 431.951 365.741 447.035C384.94 464.306 406.81 476.831 431.892 483.047C442.36 485.615 453.77 486.361 465.913 482.214C471.072 480.405 476.437 477.507 481.22 472.96C488.554 465.932 489.102 456.632 485.041 451.101C483.502 449.03 481.51 448.227 479.046 447.92C478.58 449.441 477.997 450.925 477.472 452.428C478.031 453.11 478.642 453.618 479.367 453.968C480.446 454.619 481.822 454.72 483.063 454.845C485.486 455.076 488.277 454.524 490.874 453.145C497.349 449.755 498.591 441.947 498.405 435.877C498.252 431.992 497.152 428.904 495.918 425.839C495.26 424.23 494.467 422.643 493.656 421.115C493.17 420.199 492.647 419.399 492.049 418.64C491.671 418.204 491.351 417.786 490.879 417.449C490.244 416.807 489.584 417.501 488.916 419.471C489.399 421.026 490.887 421.802 492.043 422.412C494.747 423.817 496.718 421.35 498.076 417.544C499.708 413.055 499.887 408.504 500.863 404.069C502.514 396.386 507.795 390.84 513.503 389.327C513.925 389.2 513.886 389.956 513.486 390.217C506.616 394.061 503.129 399.389 501.519 407.98C500.727 412.024 500.072 417.708 497.414 421.372C494.048 426.097 487.284 423.961 487.89 418.645C488.626 412.281 494.64 420.201 494.964 420.813C498.31 426.38 500.317 433.393 499.076 442.032C497.469 453.119 487.866 456.701 481.562 455.984C479.332 455.749 476.306 454.565 475.808 451.598C475.361 449.094 475.894 447.146 478.393 446.504C485.525 444.724 490.699 453.091 489.395 461.519C487.791 471.967 477.212 479.152 470.386 482.434C455.491 489.512 441.013 487.505 428.513 484.058C412.293 479.599 397.289 472.633 383.577 463.121C359.104 446.153 334.505 423.964 324.023 389.725C324.023 389.725 324.077 389.549 324.117 389.626L324.27 389.545Z" fill="#36281E" fill-opacity="0.1"/>
<path d="M325.908 387.744C344.448 405.709 371.13 415.677 396.59 409.599C408.86 406.706 425.372 397.693 424.319 382.976C423.931 377.356 419.951 371.978 416.58 367.746C415.662 366.569 414.667 365.433 413.578 364.395C413.182 364.018 412.786 363.641 412.372 363.322C408.377 359.666 405.731 361.414 404.411 368.431C405.776 371.28 409.015 373.232 411.566 374.718C422.298 381.014 435.613 380.553 442.552 369.181C444.374 366.157 444.64 362.784 443.671 359.48C443.296 358.406 442.675 357.512 441.825 356.739C441.528 356.457 441.271 356.25 440.974 355.967C438.441 353.591 436.541 354.992 435.332 360.187C440.432 366.292 448.786 359.065 452.469 355.396C459.416 348.377 469.971 343.359 479.975 345.146C490.523 347.036 498.492 358.178 503.171 366.905C503.415 367.363 502.849 367.958 502.394 367.562C496.67 362.034 492.384 355.154 485.793 350.576C476.31 343.959 466.083 348.949 457.372 354.212C452.264 357.316 449.288 362.226 443.09 363.461C440.492 364.008 436.252 363.028 434.591 360.728C432.831 358.333 433.17 355.558 435.366 353.608C437.657 351.56 441.345 353.714 443.275 355.137C451.503 361.049 444.007 372.57 438.312 376.965C429.579 383.757 418.085 380.362 409.359 375.449C406.084 373.614 401.666 370.084 401.392 365.97C401.104 361.276 404.487 358.794 409.1 359.184C413.402 359.544 417.157 364.404 419.475 367.482C422.973 372.136 425.837 376.98 426.674 382.803C428.48 395.063 415.633 404.432 405.949 408.693C377.204 421.314 346.51 408.58 325.715 387.749L325.751 387.632L325.908 387.744Z" fill="#36281E" fill-opacity="0.1"/>
<path d="M293.643 368.451C292.277 368.736 291.004 368.09 291.101 366.521C291.163 365.9 291.459 365.351 291.971 364.932C292.56 364.473 293.562 364.332 294.08 364.939C294.278 365.127 294.269 365.572 293.865 365.64C293.384 365.749 292.975 365.624 292.552 365.75C292.188 365.894 291.964 366.209 291.856 366.56C291.498 367.73 292.496 368.228 293.481 368.146C293.674 368.141 293.719 368.411 293.566 368.492L293.643 368.451Z" fill="#36281E" fill-opacity="0.1"/>
<path d="M293.837 364.48C292.668 364.954 291.795 364.046 291.826 362.904C291.811 362.324 292.166 361.793 292.602 361.415C293.249 360.973 294.085 361.166 294.769 361.439C295.569 361.749 294.829 363.121 294.14 362.654C293.511 362.205 292.773 362.107 292.563 363.002C292.294 363.88 292.929 364.522 293.814 364.345C293.872 364.363 293.913 364.44 293.837 364.48Z" fill="#36281E" fill-opacity="0.1"/>
<path d="M294.794 360.936C293.639 361.158 292.636 360.466 292.954 359.22C293.384 357.817 295.388 356.704 296.612 357.719C297.206 358.284 296.87 359.589 295.921 359.554C295.552 359.505 295.337 359.375 294.986 359.267C295.103 359.303 294.752 359.196 294.752 359.196C294.5 359.182 294.271 359.304 294.024 359.484C293.323 360.101 294.07 360.586 294.731 360.725C294.789 360.742 294.812 360.877 294.677 360.9L294.794 360.936Z" fill="#36281E" fill-opacity="0.1"/>
<path d="M296.464 357.993C294.799 356.331 299.729 353.811 300.733 356.166C300.981 356.818 300.186 357.534 299.615 357.103C299.3 356.879 299.237 356.667 298.945 356.578C298.594 356.47 298.149 356.462 297.821 356.489C297.146 356.602 296.171 357.071 296.635 357.853C296.694 357.871 296.581 358.028 296.541 357.952L296.464 357.993Z" fill="#36281E" fill-opacity="0.1"/>
<path d="M300.042 357.17C299.731 356.307 300.562 355.474 301.371 355.338C301.987 355.207 302.782 355.323 303.183 355.894C303.606 356.599 303.432 357.377 303.023 358.084C302.579 358.907 301.176 358.477 301.481 357.483C301.517 357.366 301.553 357.249 301.588 357.132C301.642 356.957 301.588 357.132 301.624 357.015C301.507 356.979 301.485 356.845 301.462 356.71C301.543 356.863 301.399 356.498 301.462 356.71C301.561 356.804 301.462 356.71 301.404 356.692C301.071 356.526 300.513 356.675 300.37 357.143C300.352 357.201 300.217 357.224 300.195 357.089L300.042 357.17Z" fill="#36281E" fill-opacity="0.1"/>
<path d="M302.983 358.84C303.135 357.927 304.169 357.476 305.041 357.551C305.738 357.573 306.327 357.945 306.633 358.615C306.975 359.168 307.035 360.017 306.739 360.566C306.608 360.782 306.325 361.079 306.015 361.048C305.898 361.013 305.764 361.035 305.606 360.923C305.372 360.851 305.251 360.622 305.187 360.411C305.124 360.2 305.173 359.831 305.133 359.754C305.169 359.637 305.07 359.543 305.011 359.525C304.557 359.13 303.976 358.312 303.199 358.97L303.082 358.934L302.983 358.84Z" fill="#36281E" fill-opacity="0.1"/>
<path d="M306.766 360.894C307.553 360.623 308.349 360.739 308.813 361.521C309.033 361.845 309.101 362.249 309.11 362.636C309.107 363.275 308.806 363.63 308.253 363.973C307.853 364.234 307.457 363.857 307.524 363.429C307.596 363.195 307.51 362.849 307.658 362.575C307.712 362.399 307.883 362.26 307.838 361.99C307.882 361.428 307.221 361.289 306.735 361.204C306.56 361.151 306.497 360.939 306.708 360.876L306.766 360.894Z" fill="#36281E" fill-opacity="0.1"/>
<path d="M293.707 368.662C293.06 369.104 293.357 370.218 293.87 370.632C294.482 371.139 295.287 370.81 295.758 370.315C295.929 370.175 296.167 370.44 296.015 370.521C295.39 371.097 294.545 371.35 293.817 370.807C293.56 370.6 293.34 370.277 293.33 369.89C293.24 369.351 293.599 369.013 293.608 368.568C293.643 368.451 293.801 368.563 293.724 368.604L293.707 368.662Z" fill="#36281E" fill-opacity="0.1"/>
<path d="M293.598 369.013C293.131 369.702 293.168 370.417 293.95 370.784C294.576 371.04 295.286 370.81 295.64 370.279C296.102 369.397 297.38 370.236 296.742 371.064C295.993 372.05 294.604 372.2 293.583 371.567C292.503 370.917 292.551 369.716 293.382 368.883C293.553 368.743 293.751 368.932 293.639 369.09L293.598 369.013Z" fill="#36281E" fill-opacity="0.1"/>
<path d="M296.719 370.93C297.232 371.343 297.799 371.58 298.415 371.449C298.684 371.404 298.972 371.3 299.16 371.102C299.425 370.864 299.398 370.535 299.663 370.297C300.04 369.9 300.8 370.133 300.873 370.731C300.937 371.775 299.715 372.424 298.766 372.389C297.876 372.372 297.012 371.851 296.49 371.051C296.409 370.899 296.598 370.701 296.737 370.871L296.719 370.93Z" fill="#36281E" fill-opacity="0.1"/>
<path d="M299.782 371.996C299.9 372.864 301.032 372.508 301.45 372.188C301.621 372.048 301.809 371.85 301.939 371.634C302.105 371.301 302.065 371.225 302.114 370.856C302.252 369.363 304.779 369.881 304.389 371.361C304.031 372.531 302.867 373.198 301.73 373.361C301.267 373.411 300.781 373.326 300.408 373.084C299.918 372.806 299.967 372.437 299.706 372.037C299.647 372.019 299.741 371.92 299.764 372.055L299.782 371.996Z" fill="#36281E" fill-opacity="0.1"/>
<path d="M295.777 371.92C295.252 373.423 297.775 373.748 298.227 372.479C298.46 371.719 299.535 372.176 299.163 372.766C298.606 373.747 297.532 374.121 296.498 373.74C295.679 373.49 295.175 372.631 295.619 371.808C295.655 371.691 295.813 371.803 295.795 371.862L295.777 371.92Z" fill="#36281E" fill-opacity="0.1"/>
<path d="M303.963 372.126C304.615 372.71 305.904 371.634 306.259 371.103C306.856 370.198 305.971 370.374 305.624 369.628C305.299 369.017 305.649 368.293 306.364 368.256C307.214 368.197 307.893 369.109 308.029 369.918C308.084 370.574 307.788 371.123 307.392 371.578C306.939 372.015 306.346 372.281 305.77 372.488C305.501 372.533 305.173 372.561 304.921 372.548C304.57 372.44 304.296 372.292 303.985 372.261C303.869 372.225 303.981 372.068 304.021 372.144L303.963 372.126Z" fill="#36281E" fill-opacity="0.1"/>
<path d="M306.055 368.225C306.689 368.036 307.259 367.635 307.457 366.991C307.475 366.933 307.528 366.757 307.528 366.757C307.528 366.757 307.465 366.546 307.564 366.64C307.623 366.658 307.564 366.64 307.681 366.676C307.564 366.64 307.564 366.64 307.681 366.676C307.488 366.681 307.294 366.686 307.119 366.632C306.499 366.57 306.134 365.882 306.255 365.28C306.452 364.636 306.986 364.352 307.607 364.415C308.983 364.516 309.699 366.143 309.03 367.282C308.474 368.263 307.27 368.853 306.182 368.648C306.065 368.612 306.002 368.401 306.154 368.319L306.055 368.225Z" fill="#36281E" fill-opacity="0.1"/>
<path d="M308.564 364.836C308.267 364.553 307.916 364.445 307.529 364.455C307.219 364.424 306.981 364.159 306.724 363.952C306.468 363.745 306.593 363.336 306.939 363.25C307.497 363.101 307.825 363.074 308.297 363.411C308.67 363.653 309.008 364.012 309.116 364.493C309.22 364.781 308.802 365.101 308.564 364.836Z" fill="#36281E" fill-opacity="0.1"/>
<path d="M295.371 366.358C294.378 366.885 293.762 366.185 293.891 365.137C294.056 363.972 295.21 362.918 296.438 363.295C296.964 363.456 297.693 363.999 297.496 364.642C297.46 364.759 297.406 364.935 297.37 365.052C297.334 365.169 297.258 365.209 297.164 365.308C297.164 365.308 296.741 365.435 296.953 365.371C296.683 365.417 296.395 365.52 296.139 365.314C296.022 365.278 295.923 365.184 295.882 365.107C295.824 365.09 295.783 365.013 295.684 364.919C295.743 364.937 295.725 364.995 295.684 364.919C295.743 364.937 295.567 364.883 295.684 364.919C295.338 365.005 295.055 365.302 294.871 365.693C294.652 366.202 295.137 366.286 295.524 366.277C295.582 366.295 295.623 366.371 295.605 366.43L295.371 366.358Z" fill="#36281E" fill-opacity="0.1"/>
<path d="M297.113 364.013C296.421 364.185 295.724 364.163 295.265 363.574C294.846 363.062 294.98 362.208 295.218 361.641C295.801 360.156 297.741 358.832 299.056 360.386C299.632 361.011 299.655 361.977 298.855 362.5C298.132 362.982 297.098 362.601 296.845 361.756C297.025 362.003 296.782 361.545 296.845 361.756C296.985 361.927 297.025 362.003 296.926 361.909C297.142 362.039 297.201 362.057 297.102 361.962C297.452 362.07 296.926 361.909 297.102 361.962C297.569 362.106 296.89 362.026 297.277 362.016C297.219 361.998 297.142 362.039 297.066 362.079C297.007 362.061 296.989 362.12 297.066 362.079L296.913 362.161C296.607 362.323 296.684 362.282 296.495 362.48C296.23 362.719 296.1 362.935 296.105 363.128C296.132 363.457 296.775 363.654 297.027 363.667C297.202 363.721 297.189 363.972 297.054 363.995L297.113 364.013Z" fill="#36281E" fill-opacity="0.1"/>
<path d="M298.734 361.439C297.973 360.374 299.109 359.379 300.107 359.045C300.741 358.855 301.842 358.809 302.378 359.357C302.954 359.981 303.251 361.096 302.708 361.825C302.277 362.397 301.275 362.538 301.099 361.652C301.035 361.441 301.031 361.247 300.99 361.171C301.053 361.382 300.833 361.059 301.031 361.247C301.031 361.247 301.031 361.247 300.972 361.229C301.188 361.36 301.148 361.283 300.797 361.176C300.68 361.14 300.36 360.722 300.599 360.987C300.541 360.969 300.5 360.893 300.401 360.798C300.599 360.987 300.109 360.709 300.226 360.745C299.583 360.548 298.791 360.625 298.851 361.475C298.833 361.533 298.756 361.574 298.716 361.497L298.734 361.439Z" fill="#36281E" fill-opacity="0.1"/>
<path d="M301.432 362.65C301.791 361.48 303.022 361.218 303.985 361.833C304.673 362.3 305.114 362.947 304.998 363.743C304.882 364.539 304.258 365.115 303.512 365.462C302.708 365.792 302.041 364.628 302.647 364.11C302.818 363.97 302.836 363.912 302.93 363.813C302.93 363.813 302.93 363.813 302.948 363.754C302.976 364.083 302.921 363.426 302.957 363.309C302.97 363.057 302.957 363.309 302.912 363.039C302.871 362.963 302.749 362.734 302.633 362.698C302.358 362.55 302.111 362.73 301.922 362.928C301.752 363.068 301.401 362.96 301.473 362.726L301.432 362.65Z" fill="#36281E" fill-opacity="0.1"/>
<path d="M302.586 365.562C303.102 365.337 303.853 365.183 304.254 365.754C304.632 366.189 304.569 366.81 304.408 367.336C304.211 367.98 303.856 368.511 303.263 368.777C302.958 368.939 302.548 368.813 302.274 368.665C301.784 368.387 301.752 367.866 301.877 367.456C301.949 367.222 302.196 367.042 302.47 367.19C302.646 367.244 302.646 367.244 302.88 367.316C302.88 367.316 303.293 367.634 303.037 367.428C303.037 367.428 302.92 367.392 302.979 367.41C302.92 367.392 302.979 367.41 303.149 367.27C303.149 367.27 303.338 367.072 303.432 366.973C303.58 366.699 303.805 366.384 303.701 366.096C303.593 365.615 302.918 365.728 302.59 365.756C302.473 365.72 302.451 365.585 302.586 365.562Z" fill="#36281E" fill-opacity="0.1"/>
<path d="M301.559 367.87C302.032 369.039 301.404 370.254 300.15 370.381C299.493 370.436 298.868 370.18 298.508 369.686C297.927 368.868 298.156 367.915 299.054 367.487C299.36 367.324 299.652 367.414 299.814 367.719C299.837 367.854 299.936 367.949 300.035 368.043C300.116 368.196 300.197 368.349 300.202 368.542C300.215 368.29 300.157 369.104 300.112 368.834C300.135 368.969 300.076 368.951 300.112 368.834C300.229 368.87 300.229 368.87 300.229 368.87C300.93 369.085 301.262 368.419 301.266 367.781C301.262 367.587 301.531 367.542 301.594 367.753L301.559 367.87Z" fill="#36281E" fill-opacity="0.1"/>
<path d="M298.165 369.133C297.523 369.768 296.75 369.787 296.115 369.145C295.598 368.538 295.102 367.235 295.686 366.582C295.987 366.227 296.477 366.505 296.563 366.851C296.653 367.391 296.393 367.823 296.542 368.38C296.754 369.149 297.338 369.328 298.026 368.963C298.026 368.963 298.201 369.017 298.125 369.057L298.165 369.133Z" fill="#36281E" fill-opacity="0.1"/>
<path d="M294.801 367.591C293.713 366.553 294.412 365.104 295.657 364.59C296.174 364.365 296.409 365.268 295.928 365.377C295.024 365.612 294.486 366.534 295.066 367.352C295.206 367.523 294.959 367.703 294.819 367.532L294.801 367.591Z" fill="#36281E" fill-opacity="0.1"/>
<path d="M298.198 365.689C297.659 365.78 297.232 365.713 296.912 365.295C296.592 364.877 296.731 364.216 296.991 363.784C298.019 362.308 300.842 362.277 300.53 364.549C300.44 364.841 300.175 365.08 299.924 365.067L299.807 365.031L299.748 365.013C299.959 364.95 299.883 364.99 299.613 365.035C299.227 365.045 298.894 364.879 298.579 364.654C298.696 364.69 298.696 364.69 298.579 364.654C298.813 364.726 298.579 364.654 298.521 364.637C298.754 364.708 298.521 364.637 298.462 364.619C298.655 364.614 298.462 364.619 298.404 364.601C298.345 364.583 298.004 364.862 298.004 364.862C297.986 364.92 298.242 365.127 298.418 365.181C298.535 365.217 298.521 365.468 298.328 365.473L298.198 365.689Z" fill="#36281E" fill-opacity="0.1"/>
<path d="M298.698 366.354C299.153 366.749 299.85 366.771 300.303 366.334C300.415 366.177 300.357 366.159 300.375 366.1C300.249 365.678 300.356 365.327 300.464 364.976C300.571 364.625 300.895 364.405 301.263 364.454C302.082 364.704 302.559 365.234 302.407 366.148C302.268 366.809 301.797 367.304 301.204 367.57C300.17 368.021 298.942 367.645 298.433 366.593C298.352 366.44 298.541 366.242 298.68 366.413L298.698 366.354Z" fill="#36281E" fill-opacity="0.1"/>
<path d="M305.366 358.994C307.47 354.841 308.689 351.696 307.799 346.881C307.623 345.996 307.283 343.973 307.435 343.06C307.927 340.204 308.872 336.911 311.302 335.033C316.769 330.759 323.481 330.769 327.12 337.258C327.786 338.422 326.164 339.332 325.386 338.326C322.073 334.112 316.086 331.317 311.442 335.204C307.557 338.491 307.886 344.093 308.826 348.539C309.742 352.851 308.622 356.09 305.465 359.088L305.348 359.053L305.366 358.994Z" fill="#36281E" fill-opacity="0.1"/>
<path d="M307.643 361.163C311.209 358.29 314.742 357.197 319.292 358.208C324.27 359.286 328.673 361.403 333.079 357.252C337.637 353.019 334.398 346.269 331.441 342.356C331.022 341.844 331.898 341.281 332.299 341.851C335.378 345.994 339.9 354.608 334.276 358.77C325.633 365.269 316.483 354.02 307.665 361.298C307.647 361.356 307.548 361.262 307.566 361.203L307.643 361.163Z" fill="#36281E" fill-opacity="0.1"/>
<path d="M326.658 338.139C327.875 337.297 329.409 337.511 330.717 338.04C332.143 338.605 331.803 340.548 331.755 341.749C331.729 342.252 330.937 342.33 330.905 341.808C330.788 340.94 330.917 339.892 330.206 339.291C329.239 338.482 328.024 337.854 326.739 338.292C326.663 338.333 326.564 338.238 326.658 338.139Z" fill="#36281E" fill-opacity="0.1"/>
<path d="M322.705 341.022C323.747 340.126 324.439 339.122 325.778 338.509C326.964 337.977 328.218 337.85 329.464 338.168C330.224 338.4 329.69 339.516 329.177 339.103C328.174 338.412 327.072 338.458 325.922 338.873C324.924 339.207 323.32 340.059 322.822 341.058C322.804 341.116 322.647 341.004 322.705 341.022Z" fill="#36281E" fill-opacity="0.1"/>
<path d="M307.455 370.125C311.779 369.787 313.952 370.837 315.484 375.017C317.04 379.332 317.384 382.38 321.636 385.411C327.007 389.168 337.34 386.961 337.647 378.867C337.691 378.304 338.406 378.268 338.478 378.866C339.275 384.611 332.429 389.422 326.876 388.552C323.518 388.034 321.026 386.567 318.497 384.385C313.795 380.321 316.361 370.488 307.46 370.319C307.401 370.301 307.361 370.224 307.496 370.202L307.455 370.125Z" fill="#36281E" fill-opacity="0.1"/>
<path d="M327.118 374.617C329.478 374.636 331.572 374.063 333.951 374.856C334.711 375.089 335.647 375.375 336.241 375.941C337.091 376.714 337.483 377.729 338.334 378.502C338.73 378.879 338.146 379.532 337.768 379.096C337.331 378.643 337.07 378.243 336.728 377.69C336.097 376.409 335.099 375.911 333.826 375.265C331.829 374.269 329.321 374.524 327.158 374.693C327.1 374.675 327.059 374.599 327.194 374.576L327.118 374.617Z" fill="#36281E" fill-opacity="0.1"/>
<path d="M307.829 367.234C311.502 367.144 314.504 366.529 317.748 364.708C319.693 363.577 321.058 361.628 323.242 360.762C326.558 359.54 329.409 359.838 332.669 361.093C339.366 363.657 341.277 373.071 338.167 378.835C338.114 379.01 337.821 378.921 337.875 378.745C340.509 369.317 333.16 357.405 322.403 362.872C319.824 364.193 317.821 366.138 315.062 367.211C312.802 368.118 310.158 367.564 307.811 367.292C307.753 367.274 307.788 367.157 307.847 367.175L307.829 367.234Z" fill="#36281E" fill-opacity="0.1"/>
<path d="M336.654 376.26L336.618 376.377C336.56 376.359 336.595 376.242 336.654 376.26Z" fill="#36281E" fill-opacity="0.1"/>
<path d="M296.961 356.162C294.193 348.916 288.414 350.664 282.434 349.726C279.444 349.258 277.639 347.425 276.683 344.701C274.321 338.22 281.203 328.494 285.888 324.684C290.326 321.055 293.174 327.621 296.779 327.127C299.574 326.768 303.137 329.331 305.131 330.966C307.56 333.054 307.794 337.924 307.613 340.811C307.605 341.256 306.966 341.252 306.957 340.865C307.08 337.96 306.627 335.263 305.326 332.625C303.821 329.605 297.673 327.337 294.766 328.685C294.479 328.789 294.186 328.699 294.065 328.47C290.284 319.315 282.741 328.902 280.439 332.866C277.154 338.576 275.279 347.406 283.872 349.208C290.482 350.594 294.157 349.033 297.019 356.18C297.019 356.18 296.983 356.297 296.961 356.162Z" fill="#36281E" fill-opacity="0.1"/>
<path d="M307.42 340.816C307.922 343.144 307.551 345.398 306.636 347.548C305.667 349.874 301.036 353.509 301.677 356.008C301.93 356.853 300.604 357.214 300.41 356.387C299.855 354.234 301.512 352.375 302.868 350.871C305.239 348.143 307.357 344.57 307.286 340.838C307.304 340.78 307.456 340.699 307.479 340.834L307.42 340.816Z" fill="#36281E" fill-opacity="0.1"/>
<path d="M256.885 361.728C257.133 358.413 258.449 357.665 261.451 356.218C264.816 354.627 263.299 351.859 265.535 349.985C266.842 348.85 268.065 348.201 269.655 347.601C272.855 346.343 277.643 346.787 280.639 348.281C282.91 349.425 284.467 350.606 286.159 352.596C288.927 355.875 288.153 359.86 293.756 361.193C294.399 361.39 294.171 362.344 293.528 362.147C291.621 361.69 289.962 361.054 288.894 359.319C285.711 354.058 283.769 349.752 277.096 348.155C271.201 346.732 267.131 349.579 264.34 354.929C262.545 358.281 257.932 357.059 256.943 361.745C256.907 361.862 256.79 361.827 256.768 361.692L256.885 361.728Z" fill="#36281E" fill-opacity="0.1"/>
<path d="M256.993 361.376C257.601 362.522 257.998 363.732 258.853 364.697C260.046 366.022 262.744 366.401 264.376 366.71C264.61 366.781 264.52 367.074 264.286 367.002C262.542 366.851 260.195 366.58 258.85 365.336C257.702 364.28 257.395 362.779 256.8 361.381C256.818 361.323 256.912 361.224 256.953 361.3L256.993 361.376Z" fill="#36281E" fill-opacity="0.1"/>
<path d="M260.05 366.216C261.122 368.144 261.726 369.928 261.895 372.091C262.387 378.831 266.345 380.108 271.324 382.85C277.833 386.444 283.788 385.582 288.003 379.133C290.054 375.988 289.974 372.701 292.615 369.927C293.069 369.491 293.82 370.169 293.366 370.606C289.724 374.351 290.063 380.34 285.598 383.642C282.727 385.705 279.052 387.265 275.481 385.979C271.11 384.383 265.438 381.813 262.391 378.193C259.763 375.084 261.434 369.839 259.974 366.257C259.974 366.257 260.01 366.14 260.109 366.234L260.05 366.216Z" fill="#36281E" fill-opacity="0.1"/>
<path d="M298.144 372.965C297.373 375.479 296.116 377.077 293.667 378.182C290.05 379.76 286.818 380.497 286.414 385.363C286.156 388.291 287.878 392.273 288.681 395.078C291.284 404.32 303.73 407.111 311.923 404.376C316.911 402.706 321.133 398.946 321.599 393.46C321.835 390.397 320.124 387.634 319.204 384.793C319.059 384.429 319.63 384.028 319.909 384.369C324.009 389.145 323.787 395.921 319.957 400.697C313.985 408.079 304.121 406.463 296.332 404.332C293.45 403.512 290.544 401.726 289.525 398.791C288.01 394.552 286.194 389.837 285.582 385.364C284.626 377.842 295.856 378.341 298.045 372.87C298.063 372.812 298.18 372.848 298.162 372.906L298.144 372.965Z" fill="#36281E" fill-opacity="0.1"/>
<path d="M303.159 372.455C302.177 375.033 308.116 375.894 309.631 376.166C312.158 376.685 314.865 376.619 316.337 379.117C316.679 379.67 315.821 380.175 315.479 379.622C313.489 376.517 308.122 377.751 305.051 376.298C303.485 375.562 301.69 374.116 303.001 372.343C303.037 372.226 303.176 372.397 303.176 372.397L303.159 372.455Z" fill="#36281E" fill-opacity="0.1"/>
<path d="M334.154 358.541C336.165 355.319 338.754 354.385 342.467 354.372C344.769 354.374 346.967 354.92 349.148 355.524C352.651 356.406 355.411 356.164 358.89 355.247C359.312 355.121 359.479 355.62 359.156 355.84C351.906 361.551 339.778 349.582 334.271 358.577C334.253 358.636 334.154 358.541 334.154 358.541Z" fill="#36281E" fill-opacity="0.1"/>
<path d="M333.979 362.453C341.247 365.448 350.337 360.622 356.235 356.608C356.253 356.549 356.411 356.662 356.334 356.702C351.462 362.374 340.844 367.18 333.926 362.629C333.809 362.593 333.921 362.435 333.979 362.453Z" fill="#36281E" fill-opacity="0.1"/>
<path d="M354.554 357.501C355.07 357.275 355.564 356.915 356.081 356.689C356.616 356.405 357.232 356.274 357.807 356.067C357.865 356.085 357.964 356.179 357.888 356.22C357.389 356.387 356.832 356.536 356.333 356.703C355.834 356.87 354.989 357.122 354.653 357.595C354.617 357.712 354.477 357.541 354.536 357.559L354.554 357.501Z" fill="#36281E" fill-opacity="0.1"/>
<path d="M306.181 333.591C303.531 332.011 304.503 328.215 305.238 325.817C306.869 320.496 315.529 317.904 314.588 311.794C314.52 311.39 315.194 311.276 315.262 311.681C315.737 314.513 314.22 316.543 312.432 318.618C311.265 319.924 309.94 321.117 308.772 322.422C307.039 324.322 303.485 330.91 306.275 333.492C306.334 333.51 306.221 333.667 306.221 333.667L306.181 333.591Z" fill="#36281E" fill-opacity="0.1"/>
<path d="M313.828 333.055C315.554 328.467 316.255 323.884 314.901 319.119C314.243 316.678 313.66 314.196 314.957 311.843C315.123 311.51 315.631 311.73 315.6 312.04C314.849 316.16 317.081 318.891 317.445 322.713C317.818 326.922 316.571 329.738 314.277 333.257C314.071 333.514 313.679 333.33 313.845 332.997L313.828 333.055Z" fill="#36281E" fill-opacity="0.1"/>
<path d="M307.332 341.94C307.377 338.243 307.046 334.943 308.431 331.466C310.27 326.719 314.252 321.863 314.593 316.785C314.638 316.223 315.411 316.204 315.443 316.726C315.779 320.219 313.229 323.532 311.852 326.564C310.363 329.754 308.752 332.715 308.49 336.281C308.344 338.22 307.964 340.086 307.525 341.935C307.489 342.052 307.372 342.016 307.35 341.881L307.332 341.94Z" fill="#36281E" fill-opacity="0.1"/>
<path d="M270.689 346.319L270.653 346.436C270.594 346.418 270.689 346.319 270.689 346.319Z" fill="#36281E" fill-opacity="0.1"/>
<path d="M271.881 347.644C267.706 349.371 264.503 346.47 262.844 342.699C259.799 335.944 262.347 326.17 255.846 321.299C255.648 321.11 255.89 320.737 256.165 320.885C259.781 323.273 261.148 327.786 262.02 331.827C263.014 336.93 264.023 348.242 271.871 347.257C272.065 347.252 272.11 347.522 271.899 347.585L271.881 347.644Z" fill="#36281E" fill-opacity="0.1"/>
<path d="M257.097 321.81C260.257 326.105 267.181 326.884 271.414 329.972C274.761 332.406 276.773 334.813 277.627 338.913C277.69 339.125 277.402 339.228 277.339 339.017C275.675 333.389 270.794 329.91 265.577 327.735C262.001 326.256 258.854 325.675 256.984 321.967C256.944 321.891 257.038 321.792 257.137 321.886L257.097 321.81Z" fill="#36281E" fill-opacity="0.1"/>
<path d="M259.379 325.004C262.442 326.071 265.068 327.515 267.085 330.117C270.794 334.708 272.55 341.707 277.449 345.128C277.705 345.334 277.503 345.784 277.188 345.56C273.968 343.549 272.499 340.412 270.927 336.988C268.458 331.689 264.83 327.25 259.267 325.162C259.15 325.126 259.262 324.968 259.321 324.986L259.379 325.004Z" fill="#36281E" fill-opacity="0.1"/>
<path d="M267.543 409.582C270.619 406.431 271.705 404.141 271.233 399.838C271.051 397.927 271.769 396.42 272.54 394.737C274.267 390.98 277.379 387.712 280.866 385.518C280.866 385.518 280.983 385.554 280.965 385.612C275.757 388.622 271.84 395.354 272.39 401.28C272.753 405.102 270.193 407.196 267.642 409.677C267.624 409.735 267.525 409.641 267.601 409.6L267.543 409.582Z" fill="#36281E" fill-opacity="0.1"/>
<path d="M268.091 409.878C267.989 407.288 271.751 406.074 273.584 405.101C281.357 401.022 283.392 394.801 285.6 386.969C285.779 386.384 286.58 386.694 286.419 387.22C284.361 392.475 283.929 397.012 280.09 401.401C278.622 403.062 276.699 404.328 274.812 405.477C273.001 406.585 268.43 407.104 268.343 409.892C268.307 410.009 268.172 410.031 268.167 409.838L268.091 409.878Z" fill="#36281E" fill-opacity="0.1"/>
<path d="M269.41 407.66C271.578 403.719 275.068 400.886 277.352 396.98C279.915 392.584 281.084 388.144 284.627 384.304C284.662 384.187 284.802 384.358 284.784 384.416C281.43 388.89 280.069 394.166 277.44 398.99C275.438 402.599 272.1 404.518 269.644 407.732C269.608 407.849 269.469 407.678 269.469 407.678L269.41 407.66Z" fill="#36281E" fill-opacity="0.1"/>
<path d="M324.328 389.562C325.633 391.562 327.339 393.3 328.321 395.52C329.218 397.394 328.42 399.581 328.39 401.555C328.314 406.393 330.392 411.508 329.677 416.343C329.641 416.46 329.466 416.406 329.502 416.289C329.907 412.255 328.118 407.868 327.691 403.835C327.474 402.041 327.701 400.256 328.045 398.506C328.775 395.083 325.769 392.371 324.157 389.702C324.116 389.625 324.211 389.526 324.31 389.621L324.328 389.562Z" fill="#36281E" fill-opacity="0.1"/>
<path d="M322.46 390.653C321.332 396.001 321.91 403.087 324.904 407.715C326.593 410.344 329.464 413.079 329.831 416.262C329.836 416.455 329.566 416.501 329.503 416.289C328.037 411.682 323.323 408.702 321.875 404.036C320.45 399.505 320.495 394.977 322.361 390.559C322.378 390.5 322.554 390.554 322.536 390.612L322.46 390.653Z" fill="#36281E" fill-opacity="0.1"/>
<path d="M320.826 386.379C321.691 387.731 323.323 388.039 324.223 389.275C325.304 390.758 325.921 392.29 326.332 394.079C327.316 397.963 325.652 401.932 326.232 405.883C326.236 406.077 325.967 406.122 325.903 405.911C324.767 402.108 325.891 398.23 324.853 394.522C324.046 391.524 321.018 389.508 320.615 386.442C320.633 386.383 320.727 386.284 320.768 386.361L320.826 386.379Z" fill="#36281E" fill-opacity="0.1"/>
<path d="M155.749 369.754C158.49 372.705 158.064 378.268 155.603 381.288C154.27 382.927 152.373 382.857 150.758 381.658C148.945 380.271 149.455 378.188 150.694 376.649C150.977 376.352 150.5 375.822 150.177 376.042C145.756 378.782 150.064 384.964 154.441 383.619C156.841 382.883 158.295 379.81 158.666 377.557C159.152 374.507 158.65 371.347 156.203 369.317C155.888 369.093 155.493 369.547 155.731 369.812L155.749 369.754Z" fill="#36281E" fill-opacity="0.1"/>
<path d="M148.294 375.721C147.934 380.025 140.181 381.743 137.907 378.103C136.137 375.322 138.681 370.152 142.292 371.515C143.228 371.801 143.716 370.416 142.799 370.071C137.978 368.273 134.289 374.883 136.802 378.788C139.575 383.093 148.956 381.489 148.429 375.698C148.464 375.581 148.253 375.645 148.253 375.645L148.294 375.721Z" fill="#36281E" fill-opacity="0.1"/>
<path d="M141.373 370.338C139.958 370.992 138.457 371.299 136.888 371.202C135.686 369.49 134.407 367.819 133.147 366.089C133.954 364.29 135.347 363.501 137.267 363.706C137.181 363.36 137.154 363.031 137.05 362.744C135.253 363.6 133.5 363.895 131.535 363.42C126.575 362.284 129.975 354.946 134.616 356.496C134.665 356.127 134.714 355.759 134.705 355.372C132.62 351.534 133.288 349.564 136.497 349.524C137.657 349.496 138.768 349.836 139.861 350.235C142.123 350.992 143.729 352.636 145.3 354.397C146.056 355.268 147.157 354.39 146.881 353.41C145.628 349.571 138.531 346.437 134.747 348.348C133.085 349.182 130.174 351.168 130.675 353.497C131.194 355.767 132.54 357.011 134.868 356.509C135.407 356.419 135.523 355.623 134.939 355.444C131.098 354.203 127.631 357.17 127.959 361.109C128.318 365.569 134.764 364.986 137.478 363.643C137.936 363.399 137.765 362.707 137.279 362.622C134.703 362.472 131.23 364.414 132.043 367.606C133.315 372.218 137.581 371.862 141.279 370.437C141.279 370.437 141.315 370.32 141.239 370.361L141.373 370.338Z" fill="#36281E" fill-opacity="0.1"/>
<path d="M155.874 367.681C155.724 371.09 150.116 372.697 147.893 370.353C147.101 369.598 146.24 363.641 146.357 363.677C143.552 363.649 141.63 360.948 141.839 358.39C141.963 357.148 142.573 355.992 143.404 355.159C143.651 354.979 146.205 354.994 147.014 354.858C147.477 354.808 147.58 354.264 147.318 353.864C146.094 352.017 143.725 352.443 142.13 353.681C140.289 355.1 140.072 358.104 140.334 360.168C140.823 363.58 147.475 366.706 149.022 362.702C149.112 362.41 148.851 362.01 148.563 362.114C144.311 363.05 144.938 368.935 147.359 371.468C150.158 374.437 156.552 371.727 156.126 367.694C156.121 367.501 155.793 367.528 155.797 367.722L155.874 367.681Z" fill="#36281E" fill-opacity="0.1"/>
<path d="M156.253 369.78C159.207 370.366 159.082 366.809 158.356 364.795C157.405 362.265 153.599 359.243 150.89 360.78C151.227 361.139 151.547 361.557 151.826 361.898C155.558 357.86 147.773 350.293 145.035 354.635C144.792 355.009 144.964 355.701 145.544 355.687C147.014 355.69 147.976 355.473 149.253 356.312C150.805 357.299 151.805 359.461 150.566 361.001C149.965 361.712 151.008 362.479 151.655 362.038C153.272 360.934 155.365 362.663 156.53 363.66C157.853 364.769 159.679 369.871 156.208 369.511C156.091 369.475 156.095 369.668 156.154 369.686L156.253 369.78Z" fill="#36281E" fill-opacity="0.1"/>
<path d="M150.605 382.571C151.27 386.869 147.107 391.479 142.819 391.7C140.481 391.815 139.472 389.267 139.232 387.338C138.987 385.216 139.871 383.376 141.344 381.908C141.609 381.669 141.365 381.211 141.001 381.355C136.948 383.312 137.617 390.937 141.714 392.385C143.917 393.124 146.878 391.601 148.329 389.998C150.156 387.999 151.367 385.3 150.74 382.549C150.776 382.432 150.564 382.495 150.605 382.571Z" fill="#36281E" fill-opacity="0.1"/>
<path d="M139.67 384.658C138.496 388.072 133.162 390.66 130.866 386.885C128.835 383.704 132.995 380.565 135.079 378.772C135.591 378.354 134.974 377.653 134.422 377.995C131.088 380.108 127.51 384.897 131.232 388.404C134.102 391.14 138.99 387.712 139.904 384.729C139.94 384.612 139.765 384.559 139.729 384.676L139.67 384.658Z" fill="#36281E" fill-opacity="0.1"/>
<path d="M134.39 378.305C132.046 380.53 128.985 381.127 126.604 378.67C123.49 375.477 127.965 373.394 130.487 372.887C130.244 372.429 130.059 371.988 129.834 371.471C126.995 374.056 124.301 373.038 121.676 368.459C122.685 366.21 124.32 365.048 126.581 364.973C126.513 364.568 126.405 364.087 126.337 363.683C120.045 365.017 121.665 353.679 128.785 356.948C128.91 356.539 129.036 356.13 129.161 355.72C128.811 355.613 128.478 355.447 128.127 355.339C125.636 354.704 125.881 352.86 128.841 349.672C130.293 349.734 131.673 350.029 133.152 350.418C133.679 350.579 133.894 349.878 133.403 349.6C130.057 347.998 125.956 346.357 123.712 350.34C121.527 354.34 125.727 356.075 128.727 356.93C129.486 357.163 129.903 356.012 129.103 355.702C119.956 352.579 118.289 366.782 126.464 364.937C127.291 364.743 127.088 363.529 126.22 363.647C123.155 364.051 119.107 367.032 120.28 370.718C121.867 375.555 127.077 375.041 130.693 372.631C131.417 372.149 130.755 371.178 130.022 371.273C119.572 372.612 126.71 385.42 134.314 378.346C134.331 378.288 134.291 378.211 134.215 378.252L134.39 378.305Z" fill="#36281E" fill-opacity="0.1"/>
<path d="M138.268 389.857C137.187 392.341 134.757 394.219 132.366 395.341C131.315 395.851 130.025 396.095 128.927 395.503C127.515 394.686 127.71 392.379 127.794 391.062C127.857 390.441 126.868 390.33 126.787 391.009C126.346 394.328 127.45 397.609 131.383 397.087C134.93 396.575 137.871 393.446 138.717 390.059C138.807 389.767 138.357 389.565 138.25 389.916L138.268 389.857Z" fill="#36281E" fill-opacity="0.1"/>
<path d="M126.62 392.812C121.323 395.282 118.144 390.214 118.377 385.488C118.483 383.473 119.304 381.421 120.741 380.071C121.554 379.296 122.592 379.039 123.689 378.799C124.65 378.582 125.55 378.986 126.286 378.252C126.457 378.112 126.529 377.878 126.466 377.667C125.308 375.393 121.25 377.156 119.867 378.332C117.783 380.124 117.044 383.16 117.11 385.867C117.184 388.129 117.982 390.74 119.683 392.285C121.838 394.225 124.149 393.782 126.643 392.947C126.643 392.947 126.679 392.83 126.602 392.87L126.62 392.812Z" fill="#36281E" fill-opacity="0.1"/>
<path d="M121.246 378.627C119.035 379.996 114.951 382.263 113.296 377.022C112.313 373.97 115.48 372.19 117.687 371.459C117.543 371.095 117.34 370.713 117.178 370.407C112.509 372.495 113.142 366.675 113.58 364.826C114.493 361.012 119.065 360.494 122.087 361.484C123.256 361.842 123.816 360.223 122.683 359.748C117.857 357.757 112.703 359.76 111.809 365.179C111.117 369.317 113.176 373.659 117.687 371.459C118.433 371.112 117.906 370.118 117.178 370.407C114.531 371.323 111.328 374.052 112.644 377.27C114.456 381.792 117.836 380.78 121.345 378.721C121.345 378.721 121.38 378.604 121.304 378.645L121.246 378.627Z" fill="#36281E" fill-opacity="0.1"/>
<path d="M117.268 359.687C114.434 358.499 113.845 354.16 116.789 352.695C117.993 352.105 119.252 352.171 120.439 352.47C121.432 352.775 122.026 353.341 123.105 353.16C123.451 353.074 123.599 352.799 123.572 352.471C123.413 350.695 121.043 350.289 119.627 350.111C117.725 349.848 115.842 350.358 114.621 351.839C112.52 354.521 113.751 359.057 117.232 359.804C117.349 359.84 117.344 359.646 117.286 359.629L117.268 359.687Z" fill="#36281E" fill-opacity="0.1"/>
<path d="M142.542 415.349C150.594 410.779 153.727 397.218 149.529 389.214C149.326 388.832 148.733 389.098 148.936 389.48C152.621 397.071 149.105 410.003 142.38 415.043C142.21 415.183 142.39 415.43 142.542 415.349Z" fill="#36281E" fill-opacity="0.1"/>
<path d="M156.336 417.081C163.803 408.367 160.681 388.922 151.603 382.237C150.932 381.712 150.147 382.815 150.817 383.34C159.545 389.917 160.885 407.664 155.904 416.821C155.756 417.095 156.129 417.338 156.336 417.081Z" fill="#36281E" fill-opacity="0.1"/>
<path d="M156.629 418.003C155.573 418.319 155.204 417.438 154.398 416.935C153.71 416.469 152.829 416.838 152.322 417.451C151.815 418.063 152.166 419.002 152.49 419.613C152.972 420.337 153.548 420.961 154.367 421.212C155.828 421.66 157.572 420.979 158.272 419.53C158.604 418.864 158.526 418.073 158.067 417.484C157.527 416.743 156.353 416.191 155.518 416.831C155.176 417.11 155.091 417.596 155.276 418.036C155.42 418.4 155.677 418.607 156.086 418.732C156.086 418.732 156.419 418.898 156.261 418.786C156.536 418.934 156.18 418.633 156.378 418.822C156.356 418.687 156.297 418.669 156.378 418.822C156.257 418.593 156.342 418.939 156.356 418.687C156.342 418.939 156.427 418.453 156.356 418.687C156.486 418.471 156.266 418.979 156.356 418.687C156.284 418.921 156.073 418.984 155.767 419.146C155.556 419.209 155.075 419.318 154.765 419.287C154.378 419.296 154.041 418.937 153.802 418.672C153.465 418.313 153.217 417.661 153.99 417.642C154.435 417.65 154.93 418.122 155.263 418.288C155.771 418.508 156.234 418.458 156.751 418.232C156.769 418.174 156.805 418.057 156.688 418.021L156.629 418.003Z" fill="#36281E" fill-opacity="0.1"/>
<path d="M143.482 415.829C142.547 415.542 142.429 414.674 142.158 413.888C141.888 413.101 141.24 412.711 140.48 412.478C138.609 411.905 138.594 414.459 138.757 415.596C139.01 417.273 140.972 418.386 142.482 418.465C143.179 418.487 143.813 418.297 144.302 417.743C144.868 417.149 144.593 416.169 144.345 415.518C143.993 414.578 142.636 415.25 143.006 416.131C143.317 416.994 142.813 416.967 142.112 416.752C141.118 416.448 140.362 415.576 140.145 414.614C140.082 414.403 139.847 413.499 140.193 413.414C140.827 413.224 141.479 413.808 141.723 414.266C142.169 415.106 142.457 415.835 143.487 416.022C143.604 416.058 143.599 415.865 143.54 415.847L143.482 415.829Z" fill="#36281E" fill-opacity="0.1"/>
<path d="M116.3 359.711C107.342 356.389 95.7346 361.084 91.7157 370.024C91.2941 370.982 92.8366 371.583 93.2761 370.566C96.5321 362.864 108.358 356.829 116.264 359.827C116.323 359.845 116.359 359.728 116.3 359.711Z" fill="#36281E" fill-opacity="0.1"/>
<path d="M117.283 384.257C116.548 386.655 113.437 385.957 111.844 384.893C110.666 384.148 110.336 382.512 111.18 381.427C111.947 380.383 113.575 380.498 114.208 379.476C114.338 379.26 114.369 378.95 114.095 378.802C112.624 377.967 110.329 379.823 109.624 381.078C108.713 382.59 109.268 384.743 110.591 385.853C112.584 387.487 117.192 387.684 117.458 384.311C117.476 384.252 117.301 384.199 117.283 384.257Z" fill="#36281E" fill-opacity="0.1"/>
<path d="M112.822 378.156C110.23 380.56 108.099 375.621 107.607 373.679C107.309 372.564 107.497 371.534 107.703 370.445C107.912 368.718 108.447 368.434 110.146 368.316C110.919 368.297 110.828 366.925 110.113 366.962C108.432 367.022 106.931 367.33 106.393 369.084C105.873 370.78 106.055 372.691 106.637 374.341C107.462 376.449 110.438 381.135 112.921 378.25C112.957 378.133 112.858 378.039 112.822 378.156Z" fill="#36281E" fill-opacity="0.1"/>
<path d="M112.325 368.088C109.687 368.559 108.654 365.044 108.935 363.083C109.105 362.111 109.702 361.207 110.618 360.72C111.84 360.071 112.951 360.412 114.201 360.091C114.623 359.964 114.766 359.497 114.411 359.196C113.286 358.275 110.832 358.355 109.614 359.197C108.379 360.098 107.755 361.506 107.676 363.017C107.65 364.353 108.088 365.638 108.849 366.703C109.749 367.938 110.855 368.085 112.271 368.264C112.33 368.282 112.307 368.147 112.307 368.147L112.325 368.088Z" fill="#36281E" fill-opacity="0.1"/>
<path d="M139.687 391.699C139.662 398.665 130.254 403.906 124.439 405.77C118.43 407.639 109.723 408.297 105.51 402.847C105.19 402.429 104.62 402.83 104.787 403.329C107.45 410.287 119.222 408.393 124.642 406.984C131.388 405.213 140.032 399.546 139.786 391.793C139.804 391.735 139.669 391.758 139.669 391.758L139.687 391.699Z" fill="#36281E" fill-opacity="0.1"/>
<path d="M116.586 357.943C115.958 359.158 111.473 352.09 110.654 351.007C108.916 348.748 106.235 347.478 103.6 346.479C97.956 344.237 91.5015 345.265 86.168 347.853C85.4984 348.16 86.0075 349.211 86.677 348.905C92.6084 346.244 98.7176 346.134 104.712 348.483C110.316 350.648 111.199 356.74 115.967 359.545C116.084 359.581 116.259 359.634 116.331 359.4C116.474 358.933 116.559 358.447 116.644 357.961C116.662 357.903 116.545 357.867 116.527 357.925L116.586 357.943Z" fill="#36281E" fill-opacity="0.1"/>
<path d="M111.444 380.356C104.928 378.039 98.8145 382.755 96.6808 388.882C96.3582 389.934 97.9187 390.477 98.2413 389.424C100.15 383.612 105.358 380.602 111.355 380.649C111.53 380.702 111.62 380.41 111.444 380.356Z" fill="#36281E" fill-opacity="0.1"/>
<path d="M104.832 403.599C104.635 404.242 104.263 404.832 103.85 405.345C103.306 406.074 102.996 406.043 102.797 405.022C102.603 404.195 103.447 403.11 103.82 402.521C104.304 401.774 104.672 400.991 104.748 400.118C104.348 400.38 103.872 400.682 103.454 401.001C103.962 401.221 103.9 401.842 103.833 402.269C103.52 403.708 105.503 404.124 105.816 402.685C106.147 401.187 105.611 399.807 104.162 399.107C103.596 398.87 102.872 399.352 102.869 399.99C102.843 401.326 101.559 402.596 101.164 403.882C100.806 405.052 101.077 406.67 102.139 407.379C104.361 408.892 105.238 405.195 105.241 403.724C105.295 403.549 105.003 403.459 104.949 403.635L104.832 403.599Z" fill="#36281E" fill-opacity="0.1"/>
<path d="M98.0742 390.589C97.4662 389.443 96.0764 388.761 94.8402 388.83C93.2174 388.909 92.8457 390.33 93.4 391.651C94.8913 394.923 100.76 392.884 98.9947 389.464C98.5082 388.547 96.958 389.223 97.4849 390.216C98.2957 391.744 95.4234 392.144 94.6626 391.079C94.4241 390.814 94.163 390.414 94.3469 390.022C94.4365 389.73 94.9759 389.639 95.2276 389.653C96.1536 389.553 97.2285 390.01 97.8271 390.769C97.9667 390.94 98.2137 390.76 98.1327 390.607L98.0742 390.589Z" fill="#36281E" fill-opacity="0.1"/>
<path d="M94.9468 373.253C93.557 372.571 93.3574 370.719 92.2505 369.74C91.1257 368.819 89.9347 369.158 89.3471 370.449C87.7097 373.914 92.8043 375.027 95.0872 374.256C95.7972 374.026 95.4183 372.758 94.7083 372.988C93.7286 373.264 92.7394 373.152 91.822 372.807C91.4128 372.682 91.0573 372.381 90.8547 371.999C90.751 371.711 90.9481 371.068 91.0424 370.969C90.8897 371.05 90.6917 370.861 91.0066 371.086C91.2225 371.216 91.362 371.387 91.5779 371.517C92.0098 371.777 92.3652 372.078 92.7207 372.379C93.4089 372.846 94.1198 373.447 95.01 373.464C95.1269 373.5 95.1222 373.307 95.0637 373.289L94.9468 373.253Z" fill="#36281E" fill-opacity="0.1"/>
<path d="M87.2639 350.748C88.1267 350.436 88.2334 349.253 88.0798 348.503C87.8357 347.212 86.6213 346.584 85.5387 347.404C84.3034 348.305 84.2287 350.009 85.0705 351.227C85.8898 352.31 87.7379 352.748 88.6989 351.699C88.9997 351.344 88.6575 350.791 88.2124 350.782C87.5741 350.779 86.9583 350.91 86.4049 350.42C85.9099 349.949 85.9543 349.387 86.3674 348.874C86.3853 348.815 86.4796 348.716 86.556 348.675C86.556 348.675 86.8436 348.572 86.7087 348.594C86.7087 348.594 86.9473 348.859 87.0463 348.954C87.3074 349.354 87.5015 350.181 87.0838 350.5C86.9131 350.64 87.1111 350.829 87.2639 350.748Z" fill="#36281E" fill-opacity="0.1"/>
<path d="M115.987 353.218C116.395 347.713 116.376 342.142 112.842 337.605C110.866 335.08 105.454 330.414 102.039 332.374C101.657 332.577 101.806 333.134 102.175 333.184C112.709 334.493 115.645 343.901 115.659 353.245C115.664 353.439 115.974 353.47 115.969 353.276L115.987 353.218Z" fill="#36281E" fill-opacity="0.1"/>
<path d="M102.528 335.787C102.937 335.08 103.246 334.279 103.538 333.537C103.788 332.718 104.205 331.567 103.607 330.807C102.612 329.671 100.766 330.896 100.326 331.913C99.797 333.222 100.572 334.867 101.18 336.013C101.788 337.159 103.509 336.343 103.036 335.174C102.689 334.428 102.418 333.642 102.476 332.828C102.53 332.652 102.795 332.414 102.907 332.256C103.078 332.117 102.907 332.256 102.714 332.261C102.538 332.207 102.421 332.171 102.322 332.077C102.651 332.882 102.383 334.591 102.213 335.562C102.16 335.738 102.452 335.827 102.506 335.652L102.528 335.787Z" fill="#36281E" fill-opacity="0.1"/>
<path d="M140.68 392.004C140.68 392.004 140.635 391.734 140.612 391.599C140.567 391.33 140.221 391.416 140.226 391.609C140.252 395.903 139.587 400.369 138.022 404.432C136.619 407.968 132.808 413.517 128.577 412.924C127.898 412.844 127.863 413.793 128.524 413.931C132.737 414.583 135.754 410.582 137.846 407.512C139.488 405.073 140.407 402.284 141.034 399.405C141.539 397.129 141.499 393.087 140.644 392.121C140.703 392.139 140.761 392.157 140.797 392.04L140.68 392.004Z" fill="#36281E" fill-opacity="0.1"/>
<path d="M128.858 415.761C129.145 414.825 129.059 413.647 128.613 412.807C128.045 411.737 126.867 411.824 126.113 412.617C125.228 413.625 125.068 414.983 125.905 416.007C126.585 416.919 127.812 417.296 128.847 417.677C128.649 417.488 128.433 417.358 128.235 417.169C128.235 417.169 128.217 417.228 128.199 417.286C128.289 416.994 128.279 416.607 128.31 416.297C128.791 416.188 129.254 416.138 129.735 416.03C129.852 416.066 129.852 416.066 129.735 416.03C129.042 415.37 127.892 415.785 128.014 416.846C128.082 417.25 128.262 417.497 128.559 417.78C128.973 418.099 129.706 418.004 129.984 417.513C130.244 417.081 130.271 416.578 129.893 416.142C129.614 415.801 129.07 415.698 128.66 415.572C128.193 415.429 127.316 415.16 127.167 414.603C127.063 414.315 127.346 414.018 127.436 413.726C127.472 413.609 127.678 413.352 127.543 413.375C127.449 413.474 127.368 413.321 127.525 413.433C128.079 413.923 128.354 414.903 128.332 415.6C128.319 415.852 128.728 415.977 128.8 415.743L128.858 415.761Z" fill="#36281E" fill-opacity="0.1"/>
<path d="M203.336 381.204C211.603 375.933 212.991 366.187 208.033 357.95C201.868 347.809 185.432 351.151 180.988 340.194C176.666 329.465 182.747 305.868 165.888 304.539C165.578 304.508 165.493 304.994 165.861 305.043C180.937 307.808 176.342 328.854 179.468 339.728C181.309 346.241 186.984 348.173 192.988 350.077C200.686 352.5 207.051 355.73 209.496 364.028C211.453 370.578 208.52 377.227 203.179 381.092C203.102 381.133 203.184 381.285 203.278 381.186L203.336 381.204Z" fill="#36281E" fill-opacity="0.1"/>
<path d="M204.226 381.221C210.4 378.187 215.809 374.727 219.103 368.572C221.988 363.123 221.801 356.221 220.999 350.281C220.306 344.823 218.05 337.159 213.61 333.495C210.847 331.241 207.78 329.981 204.479 328.649C198.893 326.426 195.149 322.783 192.011 317.791C185.491 307.349 179.431 293.528 164.455 297.319C163.341 297.617 158.812 300.707 157.715 300.115C155.736 299.061 153.236 298.87 151.029 298.77C146.69 298.527 141.329 299.955 138.788 303.654C138.658 303.87 138.932 304.018 139.044 303.861C143.027 299.004 152.638 298.943 157.834 301.815C158.067 301.886 158.36 301.976 158.512 301.895C170.13 294.452 180.116 300.264 186.569 311.134C190.523 317.847 193.605 324.485 200.608 328.551C204.099 330.516 208.029 331.465 211.448 333.664C216.675 337.057 218.665 344.96 219.615 350.625C222.021 364.476 215.508 374.251 204.051 381.167C203.975 381.208 203.997 381.343 204.132 381.32L204.226 381.221Z" fill="#36281E" fill-opacity="0.1"/>
<path d="M205.422 380.244C198.31 384.461 191.889 382.877 185.276 378.163C183.071 376.592 181.451 374.368 179.188 372.779C176.412 370.777 173.269 370.389 170.745 367.569C166.55 362.892 160.126 354.015 152.776 358.799C152.053 359.281 152.836 360.481 153.6 360.075C160.043 356.164 165.9 364.804 169.02 369.023C172.319 373.489 177.696 373.473 181.651 377.053C188.653 383.421 197.601 385.523 205.503 380.397C205.58 380.356 205.557 380.221 205.422 380.244Z" fill="#36281E" fill-opacity="0.1"/>
<path d="M148.317 355.193C150.702 357.844 152.036 352.239 152.17 350.553C152.76 342.993 141.372 337.584 144.349 330.372C144.807 329.296 143.031 328.624 142.614 329.776C141.251 333.388 142.872 336.444 145.051 339.351C146.748 341.534 148.611 343.385 150.043 345.807C150.971 347.37 151.229 349.241 151.253 351.039C151.262 351.426 150.521 356.765 148.641 354.973C148.483 354.86 148.236 355.041 148.376 355.211L148.317 355.193Z" fill="#36281E" fill-opacity="0.1"/>
<path d="M124.982 350.792C124.693 336.502 141.106 336.158 147.492 325.961C151.963 318.887 148.236 310.388 141.175 307.136C139.043 306.163 139.669 302.453 137.564 300.976C133.173 297.775 128.286 297.237 123.044 297.229C117.299 297.196 112.974 301.5 107.011 299.672C104.556 298.92 101.344 297.296 98.8641 298.711C97.9296 299.256 98.6234 300.748 99.5579 300.203C102.802 298.382 108.834 302.278 112.87 301.212C117.099 300.141 120.572 298.199 125.099 298.243C130.71 298.299 138.853 299.899 138.775 307.04C138.703 307.274 138.883 307.521 139.117 307.593C146.411 310.084 149.816 316.502 147.212 323.956C145.042 330.2 138.472 332.856 133.202 335.655C126.727 339.045 123.783 343.644 124.829 350.873L124.946 350.909L124.982 350.792Z" fill="#36281E" fill-opacity="0.1"/>
<path d="M125.322 324.221C124.369 319.194 122.238 315.087 118.84 311.359C115.006 307.177 109.862 305.6 105.17 302.755C101.085 300.224 98.485 298.275 93.4506 298.843C87.4724 299.57 82.7836 304.018 78.5437 307.837C78.0316 308.255 78.7472 309.05 79.2008 308.614C82.9372 304.769 86.3142 301.262 91.6533 299.7C97.7788 297.867 101.419 301.221 106.075 304.184C109.12 306.141 112.457 307.355 115.355 309.587C119.966 313.111 123.487 318.732 125.129 324.225C125.111 324.284 125.304 324.279 125.322 324.221Z" fill="#36281E" fill-opacity="0.1"/>
<path d="M114.951 358.273C109.397 351.773 104.834 351.846 97.5597 355.758C86.754 361.594 77.5877 361.663 67.3578 354.562C63.5204 351.85 59.9612 348.648 57.7138 344.505C54.2908 338.146 56.8576 329.145 63.0804 325.743C66.6298 323.76 70.3555 322.663 73.4816 319.975C76.7606 317.205 77.1374 312.011 79.2962 308.514C79.6508 307.983 78.8636 307.422 78.4505 307.935C77.1754 309.592 76.5294 310.865 75.9605 312.93C74.5408 318.188 71.7334 320.462 67.0195 322.28C63.0156 323.868 59.933 325.162 57.4281 328.744C53.1455 334.789 55.0153 343.294 59.3813 348.663C64.5619 354.92 72.5423 360.181 80.5231 361.476C84.7945 362.145 89.1226 361.168 93.0096 359.545C95.3463 358.598 97.5388 357.287 99.8123 356.128C105.658 353.122 110.195 354.385 114.839 358.431C114.897 358.449 115.05 358.367 114.951 358.273Z" fill="#36281E" fill-opacity="0.1"/>
<path d="M222.546 420.356C219.799 416.38 224.359 409.014 224.656 404.498C224.962 400.37 223.393 396.307 220.936 393.059C219.878 391.711 218.618 390.813 216.945 390.428C213.659 389.677 212.576 385.699 210.663 383.385C208.471 380.73 206.388 379.388 203.013 380.593C202.514 380.76 202.726 381.528 203.171 381.537C209.883 381.547 210.257 386.587 214.055 390.054C214.887 390.885 215.566 390.965 216.636 391.229C220.84 392.326 222.468 397.239 223.137 400.898C224.312 407.08 217.47 415.218 222.411 420.379C222.451 420.456 222.604 420.374 222.505 420.28L222.546 420.356Z" fill="#36281E" fill-opacity="0.1"/>
<path d="M221.753 419.602C215.617 425.014 214.029 436.874 203.885 434.917C199.182 433.987 196.952 438.55 192.191 438.434C185.165 438.199 179.956 435.58 176.179 429.752C175.877 429.276 175.077 429.798 175.379 430.274C179.158 437.766 192.076 444.028 199.37 437.755C201.36 436.062 206.499 437.445 209.151 436.723C210.881 436.293 212.26 434.925 213.468 433.696C217.223 429.793 218.673 424.224 222.329 420.226C222.688 419.889 222.076 419.381 221.735 419.661L221.753 419.602Z" fill="#36281E" fill-opacity="0.1"/>
<path d="M178.703 373.526C177.266 370.911 174.956 371.354 172.403 372.171C170.772 372.695 168.934 373.475 167.685 374.627C166.814 375.384 166.105 376.446 165.332 377.297C163.617 379.138 161.013 377.828 159.219 377.214C158.575 377.017 158.307 377.894 158.932 378.15C161.491 379.19 163.798 380.217 165.99 378.074C167.463 376.606 168.216 374.982 170.144 373.909C172.242 372.697 176.991 369.931 178.608 373.625C178.608 373.625 178.725 373.661 178.685 373.584L178.703 373.526Z" fill="#36281E" fill-opacity="0.1"/>
<path d="M161.543 403.643C161.87 398.818 161.713 393.908 161.015 389.088C160.599 386.273 159.631 380.667 156.115 380.037C155.571 379.935 155.127 380.758 155.523 381.135C161.13 386.628 161.342 396.161 161.349 403.648C161.313 403.765 161.507 403.76 161.525 403.702L161.543 403.643Z" fill="#36281E" fill-opacity="0.1"/>
<path d="M140.172 467.527C141.724 468.515 143.789 469.915 145.59 468.42C147.58 466.727 149.129 464.387 151.438 463.111C153.442 461.998 156.117 462.242 158.224 461.417C162.516 459.726 165.278 457.182 166.447 452.742C166.877 451.339 166.133 449.383 165.79 447.999C164.382 442.577 168.439 439.982 172.096 437.649C181.104 431.837 177.706 419.345 173.153 411.872C170.978 408.327 167.342 404.334 163.34 402.787C158.752 401.061 155.843 399.914 153.159 395.317C151.988 393.295 150.691 391.682 148.726 390.376C148.037 389.909 147.27 390.953 147.94 391.478C151.17 393.876 151.655 397.927 154.539 400.41C157.855 403.153 162.104 403.688 165.703 406.134C170.579 409.42 173.759 415.32 175.343 420.796C177.639 428.536 174.39 434.129 168.087 438.211C166.334 439.337 163.909 441.409 163.696 443.774C163.136 450.192 166.679 455.116 159.022 459.231C156.102 460.831 152.555 460.511 149.558 462.151C146.008 464.134 145.484 469.603 140.226 467.352C140.109 467.316 140.073 467.433 140.172 467.527Z" fill="#36281E" fill-opacity="0.1"/>
<path d="M140.132 467.451C140.455 466.398 135.142 462.659 134.278 462.138C130.918 459.957 127.154 458.675 124.997 455.072C121.768 449.54 122.11 440.497 126.245 435.559C126.47 435.244 126.015 434.848 125.75 435.087C120.899 439.23 120.764 448.017 122.892 453.595C124.275 457.217 126.462 458.847 129.889 460.601C132.084 461.786 134.351 462.736 136.474 464.155C137.005 464.509 139.072 467.574 140.002 467.667C140.002 467.667 140.115 467.509 140.191 467.469C140.209 467.41 140.11 467.316 140.074 467.433L140.132 467.451Z" fill="#36281E" fill-opacity="0.1"/>
<path d="M125.458 457.324C123.819 455.158 121.726 452.597 118.723 452.381C113.22 451.974 108.231 452.811 103.247 449.877C98.7531 447.22 94.4097 441.986 95.919 436.436C96.5416 434.196 99.2649 433.239 101.035 432.054C102.994 430.671 104.174 428.282 105.403 426.356C105.758 425.825 104.93 425.188 104.558 425.777C102.636 428.707 100.849 430.782 97.8798 432.75C96.2805 433.796 95.5798 434.413 94.8262 436.037C93.4445 438.876 94.7971 442.809 96.5167 445.127C98.7181 448.169 101.463 450.481 104.791 452.141C106.829 453.213 109.176 453.485 111.441 453.604C112.314 453.679 114.242 453.438 115.109 453.32C119.586 452.901 122.321 453.995 125.323 457.346C125.44 457.382 125.516 457.341 125.475 457.265L125.458 457.324Z" fill="#36281E" fill-opacity="0.1"/>
<path d="M155.722 400.516C152.842 397.395 155.095 393.799 155.667 390.264C156.123 387.525 154.07 385.041 152.136 383.424C151.623 383.011 150.868 383.803 151.363 384.275C154.648 387.329 154.273 390.221 153.675 394.259C153.309 396.706 153.693 398.999 155.628 400.615C155.745 400.651 155.781 400.534 155.722 400.516Z" fill="#36281E" fill-opacity="0.1"/>
<path d="M136.739 393.803C138.818 400.581 128.661 398.876 125.089 400.724C124.631 400.967 124.96 401.772 125.436 401.47C128.069 399.974 131.23 400.303 134.047 399.247C136.788 398.232 137.191 396.5 136.815 393.762C136.833 393.704 136.698 393.726 136.757 393.744L136.739 393.803Z" fill="#36281E" fill-opacity="0.1"/>
<path d="M117.909 390.143C115.293 390.748 115.341 393.514 116.26 395.523C117.607 398.431 122.278 402.805 120.91 406.224C120.637 406.908 121.73 407.307 122.021 406.564C124.344 401.071 113.22 394.591 117.95 390.219C117.95 390.219 117.985 390.102 117.968 390.161L117.909 390.143Z" fill="#36281E" fill-opacity="0.1"/>
<path d="M121.377 406.367C120.129 412.318 116.767 417.237 112.082 421.046C109.427 423.24 106.898 425.023 103.352 425.536C101.271 425.857 99.729 426.089 97.7968 426.968C93.6854 428.906 90.8452 429.827 86.0788 428.686C83.5698 428.109 81.2314 427.392 78.8298 426.464C77.1298 425.751 66.3981 420.287 66.8811 417.876C67.1538 416.361 64.6853 415.86 64.2957 417.34C63.0731 421.955 66.3959 422.59 70.1061 424.047C74.2841 425.647 77.3662 428.319 81.728 429.528C84.6689 430.365 88.4462 431.395 91.4579 431.166C95.8586 430.788 99.0876 427.555 103.601 427.019C107.053 426.606 109.016 425.416 111.671 423.223C117.074 418.738 120.602 413.486 121.494 406.403C121.53 406.286 121.337 406.291 121.319 406.349L121.377 406.367Z" fill="#36281E" fill-opacity="0.1"/>
<path d="M76.9126 410.396C73.8167 411.942 70.6804 413.411 67.5214 414.746C65.014 415.833 62.5689 416.299 59.826 415.65C57.1416 415.02 52.2105 411.077 51.3943 408.524C50.8259 406.623 51.0252 403.677 50.6097 401.695C49.918 397.9 49.0198 394.362 48.926 390.495C48.7516 382.509 52.3988 374.991 59.8493 371.965C60.4424 371.699 60.0145 370.8 59.4213 371.066C52.1821 374.029 49.5027 378.389 47.4019 385.87C46.4255 389.473 46.4873 392.818 47.0979 396.46C47.5275 399.023 48.2269 401.54 48.715 404.121C49.0269 405.815 48.6825 407.565 49.2641 409.215C50.9551 414.339 57.7022 418.198 63.0562 418.048C68.8147 417.829 72.339 413.216 76.8767 410.513C76.9352 410.531 76.9126 410.396 76.8362 410.436L76.9126 410.396Z" fill="#36281E" fill-opacity="0.1"/>
<path d="M59.9074 371.982C60.6533 371.635 60.608 371.365 60.8005 370.529C60.908 370.178 60.6064 369.701 60.5206 369.355C59.8985 367.629 60.0325 366.775 61.0784 365.24C64.0633 360.717 71.0627 360.623 75.8188 360.546C76.6505 360.545 76.7525 359.169 75.9029 359.228C71.2637 359.342 65.6439 358.899 61.6097 361.629C58.1281 364.016 56.4604 368.623 59.7725 372.005C59.7725 372.005 59.831 372.023 59.8894 372.041L59.9074 371.982Z" fill="#36281E" fill-opacity="0.1"/>
<path d="M106.988 372.146C106.221 360.46 93.0193 361.596 84.45 360.761C83.5778 360.685 83.4937 362.003 84.348 362.137C92.3195 363.045 104.784 361.811 106.508 372.255C106.593 372.601 107.016 372.475 106.988 372.146Z" fill="#36281E" fill-opacity="0.1"/>
<path d="M123.143 405.821C123.989 402.434 126.74 401.805 129.656 400.844C131.769 400.212 132.469 398.763 131.473 396.795C131.23 396.336 130.344 396.513 130.552 397.088C131.494 400.064 126.908 399.17 125.147 399.91C122.675 400.879 121.801 403.106 121.821 405.544C121.858 406.258 122.968 406.599 123.143 405.821Z" fill="#36281E" fill-opacity="0.1"/>
<path d="M54.9212 415.17C54.9212 415.17 54.8269 415.269 54.8854 415.287C54.9438 415.305 55.0381 415.206 54.9212 415.17Z" fill="#36281E" fill-opacity="0.1"/>
<path d="M380.311 283.894C375.681 288.361 370.214 287.836 365.226 285.54C363.882 289.926 361.602 294.025 358.823 297.46C352.137 305.71 341.783 308.614 331.474 307.821C319.965 306.981 308.94 301.427 299.153 295.804C292.837 292.206 286.782 288.175 281.311 283.491C281.652 283.212 281.935 282.915 282.259 282.694C290.965 289.968 300.798 295.861 311.089 300.678C325.976 307.608 344.5 310.598 356.989 297.601C360.384 294.036 362.713 289.568 363.971 284.836C361.659 283.615 359.437 282.103 357.502 280.486C353.772 277.424 350.662 273.592 349.061 269.007C348.146 266.36 347.583 260.685 350.854 259.193C358.736 255.595 364.393 266.349 365.838 272.485C366.804 276.428 366.533 280.439 365.544 284.294C366.952 284.918 368.319 285.464 369.582 285.724C375.495 287.088 380.535 282.747 383.124 277.847C386.139 272.182 382.83 267.33 379.265 263.103C379.027 262.838 379.305 262.347 379.62 262.572C387.694 267.733 386.68 277.722 380.289 283.759L380.311 283.894ZM365.048 278.193C365.201 274.145 364.024 270.266 362.177 266.693C361.285 265.013 360.011 263.535 358.72 262.115C356.159 259.411 353.206 259.658 349.801 262.837C349.579 264.815 349.684 266.767 350.252 268.668C351.733 274.688 358.046 280.589 364.235 283.765C364.674 281.916 364.937 280.014 365.007 278.116L365.048 278.193Z" fill="#36281E" fill-opacity="0.1"/>
<path d="M379.477 263.039C378.958 269.533 383.79 273.381 389.752 274.377C397.229 275.645 402.691 271.178 404.433 264.035C406.031 257.36 402.902 252.754 401.785 246.591C401.315 243.952 402.814 241.98 404.75 240.462C405.186 240.084 405.803 240.785 405.408 241.24C401.366 245.247 403.941 249.362 405.456 253.601C406.412 256.325 406.433 259.594 406.076 262.427C405.264 268 403.304 272.517 397.966 274.911C389.298 278.78 378.875 272.515 379.401 263.08C379.419 263.021 379.554 262.999 379.518 263.116L379.477 263.039Z" fill="#36281E" fill-opacity="0.1"/>
</g>
<defs>
<clipPath id="clip0_183_989">
<rect width="482.361" height="444.662" fill="white" transform="matrix(0.956103 0.29303 0.29303 -0.956103 0 425.143)"/>
</clipPath>
</defs>
</svg>
